<svg width="128" height="128" xmlns="http://www.w3.org/2000/svg">

 <g>
  <title>background</title>
  <rect fill="none" id="canvas_background" height="402" width="582" y="-1" x="-1"/>
 </g>
 <g>
  <title>Layer 1</title>
  <path id="svg_1" d="m8.76,1l10.055,112.883l45.118,12.58l45.244,-12.626l10.063,-112.837l-110.48,0zm89.591,25.862l-3.347,37.605l0.01,0.203l-0.014,0.467l0,-0.004l-2.378,26.294l-0.262,2.336l-28.36,7.844l0,0.001l-0.022,0.019l-28.311,-7.888l-1.917,-21.739l13.883,0l0.985,11.054l15.386,4.17l-0.004,0.008l0,-0.002l15.443,-4.229l1.632,-18.001l-32.283,0l-0.277,-3.043l-0.631,-7.129l-0.331,-3.828l34.749,0l1.264,-14l-52.926,0l-0.277,-3.041l-0.63,-7.131l-0.332,-3.828l69.281,0l-0.331,3.862z" fill="#f44647"/>
 </g>
</svg>