<svg width="128" height="128" xmlns="http://www.w3.org/2000/svg">

 <g>
  <title>background</title>
  <rect fill="none" id="canvas_background" height="402" width="582" y="-1" x="-1"/>
 </g>
 <g>
  <title>Layer 1</title>
  <path id="svg_1" d="m9.032,2l10.005,112.093l44.896,12.401l45.02,-12.387l10.015,-112.107l-109.936,0zm89.126,26.539l-0.627,7.172l-0.276,3.289l-52.665,0l1.257,14l50.156,0l-0.336,3.471l-3.233,36.119l-0.238,2.27l-28.196,7.749l0,0.002l-0.034,0.018l-28.177,-7.423l-1.913,-21.206l13.815,0l0.979,10.919l15.287,4.081l0.043,0l0,-0.546l15.355,-3.875l1.604,-17.579l-47.698,0l-3.383,-38.117l-0.329,-3.883l68.939,0l-0.33,3.539z" fill="#f44647"/>
 </g>
</svg>