<svg width="128" height="128" xmlns="http://www.w3.org/2000/svg">

 <g>
  <title>background</title>
  <rect fill="none" id="canvas_background" height="402" width="582" y="-1" x="-1"/>
 </g>
 <g>
  <title>Layer 1</title>
  <path id="svg_1" d="m112.771,30.334l-44.097,-25.605c-2.781,-1.584 -6.402,-1.584 -9.205,0l-44.568,25.605c-2.87,1.651 -4.901,4.754 -4.901,8.073l0,51.142c0,3.319 2.084,6.423 4.954,8.083l11.775,6.688c5.628,2.772 7.617,2.772 10.178,2.772c8.333,0 13.093,-5.039 13.093,-13.828l0,-50.49c0,-0.713 -0.371,-1.774 -1.071,-1.774l-5.623,0c-0.712,0 -2.306,1.061 -2.306,1.773l0,50.49c0,3.896 -3.524,7.773 -10.11,4.48l-12.167,-7.013c-0.424,-0.23 -0.723,-0.693 -0.723,-1.181l0,-51.142c0,-0.482 0.555,-0.966 0.982,-1.213l44.424,-25.561c0.415,-0.235 1.025,-0.235 1.439,0l43.882,25.555c0.42,0.253 0.272,0.722 0.272,1.219l0,51.142c0,0.488 0.183,0.963 -0.232,1.198l-44.086,25.576c-0.378,0.227 -0.847,0.227 -1.261,0l-11.307,-6.749c-0.341,-0.198 -0.746,-0.269 -1.073,-0.086c-3.146,1.783 -3.726,2.02 -6.677,3.043c-0.726,0.253 -1.797,0.692 0.41,1.929l14.798,8.754a9.294,9.294 0 0 0 4.647,1.246c1.642,0 3.25,-0.426 4.667,-1.246l43.885,-25.582c2.87,-1.672 4.23,-4.764 4.23,-8.083l0,-51.142c0,-3.319 -1.36,-6.414 -4.229,-8.073zm-34.861,51.111c-11.726,0 -14.309,-3.235 -15.17,-9.066c-0.1,-0.628 -0.633,-1.379 -1.272,-1.379l-5.731,0c-0.709,0 -1.279,0.86 -1.279,1.566c0,7.466 4.059,16.512 23.453,16.512c14.039,0 22.088,-5.455 22.088,-15.109c0,-9.572 -6.467,-12.084 -20.082,-13.886c-13.762,-1.819 -15.16,-2.738 -15.16,-5.962c0,-2.658 1.184,-6.203 11.374,-6.203c9.105,0 12.461,1.954 13.842,8.091c0.118,0.577 0.645,0.991 1.24,0.991l5.754,0c0.354,0 0.692,-0.143 0.94,-0.396c0.24,-0.272 0.367,-0.613 0.335,-0.979c-0.891,-10.568 -7.912,-15.493 -22.112,-15.493c-12.631,0 -20.166,5.334 -20.166,14.275c0,9.698 7.497,12.378 19.622,13.577c14.505,1.422 15.633,3.542 15.633,6.395c0,4.955 -3.978,7.066 -13.309,7.066z" fill="#f44647"/>
 </g>
</svg>