<svg width="128" height="128" xmlns="http://www.w3.org/2000/svg">

 <g>
  <title>background</title>
  <rect fill="none" id="canvas_background" height="402" width="582" y="-1" x="-1"/>
 </g>
 <g>
  <title>Layer 1</title>
  <path id="svg_1" d="m50.246,41.616c-3.682,-0.925 -7.369,-0.628 -11.26,-0.022c0,6.805 -0.014,13.427 0.037,20.05c0.002,0.339 0.511,0.929 0.841,0.974c4.243,0.573 8.463,0.619 12.431,-1.315c4.105,-2 6.196,-6.182 5.654,-11.092c-0.492,-4.471 -3.139,-7.448 -7.703,-8.595zm76.754,22.347l0,-60.678c0,-2.096 0.023,-2.285 -2.012,-2.285l-121.509,0c-1.979,0 -2.479,0.19 -2.479,2.186l0,121.509c0,2.018 0.252,2.021 2.209,2.021c40.555,0.001 81.231,-0.009 121.786,0.037c1.573,0.002 1.995,-0.417 1.991,-1.959c-0.054,-20.277 0.014,-40.556 0.014,-60.831zm-70.648,5.84c-5.557,1.982 -11.352,2.093 -17.352,1.628l0,22.569l-11,0l0,-1.402c0,-18.895 -0.087,-37.788 -0.14,-56.682c-0.006,-1.569 0.243,-2.327 2.011,-2.507c8.332,-0.852 16.617,-1.81 24.902,0.133c8.906,2.087 14.041,7.975 14.431,16.11c0.483,10.074 -3.944,16.974 -12.852,20.151zm44.31,12.754c-0.424,5.771 -3.678,9.56 -9.015,11.392c-7.142,2.452 -14.245,1.883 -21.225,-0.891c-1.143,-0.455 -1.364,-1.031 -0.987,-2.196c0.687,-2.126 1.19,-4.312 1.72,-6.286c2.951,0.866 5.757,1.947 8.664,2.458c2.053,0.361 4.272,0.149 6.359,-0.178c1.871,-0.294 3.217,-1.564 3.524,-3.572c0.312,-2.041 -0.303,-3.809 -2.105,-4.895c-1.432,-0.862 -3.01,-1.479 -4.523,-2.202c-2.433,-1.163 -5.026,-2.075 -7.27,-3.53c-8.831,-5.727 -5.956,-16.383 -0.063,-20.396c3.153,-2.146 6.642,-3.098 10.377,-3.229c4.393,-0.154 8.623,0.604 12.778,2.623l-2.195,7.789c-1.74,-0.616 -3.36,-1.416 -5.07,-1.734c-2.029,-0.378 -4.157,-0.589 -6.205,-0.422c-2.746,0.225 -4.354,2.12 -4.354,4.47c0,1.392 0.528,2.57 1.689,3.245c1.666,0.969 3.434,1.768 5.186,2.579c1.896,0.877 3.898,1.551 5.723,2.552c4.87,2.67 7.405,6.8 6.992,12.423z" fill="#f44647" clip-rule="evenodd" fill-rule="evenodd"/>
 </g>
</svg>