<svg width="256" height="256" xmlns="http://www.w3.org/2000/svg" preserveAspectRatio="xMidYMid">

 <g>
  <title>background</title>
  <rect fill="none" id="canvas_background" height="402" width="582" y="-1" x="-1"/>
 </g>
 <g>
  <title>Layer 1</title>
  <path fill="#f44647" id="svg_2" d="m220.281239,110.513661c-8.906376,0.04663 -16.646995,2.191621 -23.128598,5.362477c-2.378142,-4.709653 -4.756284,-8.906375 -5.175956,-11.98397c-0.466302,-3.590529 -1.025865,-5.78215 -0.466302,-10.072132c0.559562,-4.289981 3.077595,-10.398542 3.030965,-10.864845c-0.04663,-0.466302 -0.559563,-2.657923 -5.688889,-2.704554c-5.129326,-0.04663 -9.559199,0.979235 -10.072131,2.331512c-0.512933,1.352277 -1.492168,4.429873 -2.144991,7.600729c-0.885975,4.663024 -10.258652,21.310018 -15.621129,30.029872c-1.725319,-3.404007 -3.217487,-6.388342 -3.543898,-8.766484c-0.466303,-3.590528 -1.025866,-5.782149 -0.466303,-10.072131c0.559563,-4.289982 3.077596,-10.398543 3.030966,-10.864845c-0.046631,-0.466303 -0.559563,-2.657924 -5.688889,-2.704554c-5.129326,-0.04663 -9.559199,0.979235 -10.072131,2.331512c-0.512933,1.352277 -1.072496,4.523133 -2.144991,7.600728c-1.072496,3.077596 -13.522769,30.869217 -16.786885,38.050274c-1.678689,3.683788 -3.124226,6.621493 -4.150092,8.626593l0,0c0,0 -0.04663,0.139891 -0.186521,0.373042c-0.885974,1.725319 -1.398907,2.657924 -1.398907,2.657924c0,0 0,0 0,0.04663c-0.699453,1.259016 -1.445537,2.424772 -1.818579,2.424772c-0.279781,0 -0.792714,-3.357377 0.093261,-7.92714c1.865209,-9.652459 6.295082,-24.667395 6.248451,-25.180328c0,-0.279781 0.839345,-2.891075 -2.891074,-4.243351c-3.637159,-1.352277 -4.942805,0.885974 -5.269217,0.885974c-0.326412,0 -0.559563,0.792714 -0.559563,0.792714c0,0 4.056831,-16.880146 -7.740619,-16.880146c-7.367578,0 -17.532969,8.067031 -22.569035,15.341348c-3.170856,1.725319 -9.93224,5.409108 -17.159927,9.372678c-2.751184,1.538798 -5.595628,3.077596 -8.253552,4.523133c-0.186521,-0.186521 -0.373042,-0.419672 -0.559563,-0.606193c-14.268852,-15.248088 -40.661566,-26.019672 -39.542441,-46.490346c0.419673,-7.460838 2.984336,-27.045538 50.687068,-50.826958c39.262659,-19.351549 70.504918,-13.989071 75.914025,-2.098361c7.74062,16.973406 -16.740255,48.495446 -57.308561,53.065209c-15.481238,1.725319 -23.5949,-4.243351 -25.64663,-6.481603c-2.144991,-2.331511 -2.471403,-2.471402 -3.264117,-2.0051c-1.305646,0.699454 -0.466302,2.797815 0,4.010201c1.212387,3.170856 6.201822,8.766484 14.641895,11.517668c7.460838,2.424773 25.6,3.777049 47.562841,-4.709654c24.574135,-9.512568 43.785793,-35.951912 38.143534,-58.101275c-5.642259,-22.475774 -42.946448,-29.889982 -78.245537,-17.346448c-20.983607,7.460838 -43.739162,19.211658 -60.106376,34.506375c-19.444808,18.185793 -22.522404,33.993443 -21.263387,40.614937c4.523133,23.501639 36.931147,38.796357 49.894353,50.127504c-0.652823,0.373042 -1.259017,0.699454 -1.771949,0.979235c-6.481603,3.217486 -31.195628,16.134062 -37.35082,29.796721c-6.994535,15.481239 1.119126,26.579235 6.481603,28.071403c16.646995,4.616393 33.760292,-3.683789 42.946448,-17.393078c9.186157,-13.70929 8.067031,-31.52204 3.82368,-39.682332c-0.046631,-0.09326 -0.093261,-0.186521 -0.186521,-0.279781c1.678688,-0.979235 3.404007,-2.0051 5.082696,-2.984335c3.310746,-1.95847 6.574863,-3.77705 9.372677,-5.269217c-1.585428,4.336612 -2.751184,9.512568 -3.310747,16.973406c-0.699453,8.766485 2.891075,20.144262 7.600729,24.620765c2.098361,1.95847 4.569763,2.0051 6.155191,2.0051c5.502368,0 7.973771,-4.569763 10.724955,-9.97887c3.357377,-6.621494 6.388342,-14.315483 6.388342,-14.315483c0,0 -3.777049,20.797085 6.481603,20.797085c3.730419,0 7.507468,-4.849544 9.186157,-7.320947l0,0.046631c0,0 0.09326,-0.139891 0.279781,-0.466303c0.373042,-0.606193 0.606193,-0.979235 0.606193,-0.979235l0,-0.09326c1.492168,-2.611294 4.849545,-8.533334 9.83898,-18.372314c6.434973,-12.683424 12.636794,-28.537704 12.636794,-28.537704c0,0 0.559563,3.870309 2.471403,10.305282c1.119126,3.777049 3.450637,7.92714 5.315847,11.93734c-1.492168,2.098361 -2.424772,3.264117 -2.424772,3.264117c0,0 0,0 0.04663,0.04663c-1.212386,1.585428 -2.518033,3.310747 -3.96357,4.989436c-5.082696,6.06193 -11.144627,13.009836 -11.983971,15.014936c-0.979235,2.378142 -0.746084,4.103461 1.119125,5.502368c1.352277,1.025865 3.77705,1.165756 6.248452,1.025865c4.569763,-0.326412 7.78725,-1.445537 9.372678,-2.144991c2.471402,-0.885974 5.362477,-2.238251 8.067031,-4.243351c4.989435,-3.683789 8.0204,-8.953006 7.740619,-15.900911c-0.139891,-3.82368 -1.398907,-7.647359 -2.937705,-11.237887c0.466302,-0.652824 0.885975,-1.305647 1.352277,-1.95847c7.88051,-11.517669 13.989071,-24.154463 13.989071,-24.154463c0,0 0.559563,3.87031 2.471403,10.305282c0.932604,3.264117 2.844444,6.808015 4.523133,10.258653c-7.414208,6.0153 -11.983971,13.009836 -13.61603,17.579599c-2.937705,8.486703 -0.652823,12.310382 3.683789,13.196357c1.95847,0.419672 4.756284,-0.512933 6.808015,-1.398907c2.611293,-0.839344 5.688889,-2.284882 8.626593,-4.429873c4.989436,-3.683788 9.79235,-8.813114 9.512569,-15.76102c-0.139891,-3.170856 -0.979235,-6.295082 -2.144991,-9.326047c6.295082,-2.611293 14.408743,-4.056831 24.760656,-2.844445c22.195992,2.611294 26.579235,16.460474 25.73989,22.289254c-0.839344,5.828779 -5.502368,8.999635 -7.041165,9.97887c-1.538798,0.979235 -2.051731,1.305647 -1.91184,2.0051c0.186521,1.025866 0.932605,0.979235 2.238251,0.792714c1.818579,-0.326411 11.657559,-4.709653 12.077232,-15.434608c0.699453,-13.709289 -12.357013,-28.677596 -35.43898,-28.537705l0,0zm-171.22623,57.728233c-7.367577,8.020401 -17.626229,11.051366 -22.056102,8.486703c-4.756284,-2.751184 -2.891075,-14.595264 6.155191,-23.081967c5.502368,-5.175956 12.590164,-9.97887 17.299818,-12.916575c1.072496,-0.652824 2.657924,-1.585428 4.569763,-2.751184c0.326412,-0.186521 0.512933,-0.279782 0.512933,-0.279782l0,0c0.373042,-0.233151 0.746084,-0.466302 1.119126,-0.699453c3.310746,12.123861 0.13989,22.802185 -7.600729,31.242258l0,0zm53.624772,-36.464845c-2.564663,6.248452 -7.92714,22.242623 -11.191256,21.356649c-2.797815,-0.746084 -4.523133,-12.869946 -0.559563,-24.853917c2.0051,-6.0153 6.248452,-13.196357 8.719854,-15.994171c4.0102,-4.476503 8.440073,-5.96867 9.512568,-4.150091c1.352277,2.378142 -4.896175,19.72459 -6.481603,23.64153l0,0zm44.252095,21.170128c-1.072495,0.559563 -2.098361,0.932604 -2.564663,0.652823c-0.326412,-0.186521 0.466302,-0.932605 0.466302,-0.932605c0,0 5.548999,-5.96867 7.74062,-8.673224c1.259016,-1.585428 2.751184,-3.450637 4.336612,-5.548998l0,0.606193c0,7.134426 -6.901275,11.937341 -9.978871,13.895811l0,0zm34.133333,-7.78725c-0.792714,-0.559563 -0.652823,-2.424772 2.005101,-8.253552c1.025865,-2.284881 3.450637,-6.108561 7.600728,-9.792349c0.466303,1.492167 0.792714,2.937704 0.746084,4.289981c-0.04663,8.999636 -6.481603,12.357013 -10.351913,13.75592l0,0z"/>
 </g>
</svg>