<svg width="128" height="128" xmlns="http://www.w3.org/2000/svg">

 <g>
  <title>background</title>
  <rect fill="none" id="canvas_background" height="402" width="582" y="-1" x="-1"/>
 </g>
 <g>
  <title>Layer 1</title>
  <path id="svg_1" fill="#f44647" d="m64.004,25.602c-17.067,0 -27.73,8.53 -32,25.597c6.398,-8.531 13.867,-11.73 22.398,-9.597c4.871,1.214 8.352,4.746 12.207,8.66c6.274,6.367 13.536,13.738 29.395,13.738c17.066,0 27.73,-8.531 32,-25.602c-6.399,8.536 -13.867,11.735 -22.399,9.602c-4.87,-1.215 -8.347,-4.746 -12.207,-8.66c-6.27,-6.367 -13.53,-13.738 -29.394,-13.738zm-32,38.398c-17.066,0 -27.73,8.531 -32,25.602c6.398,-8.536 13.866,-11.735 22.398,-9.602c4.871,1.215 8.352,4.746 12.207,8.66c6.274,6.367 13.536,13.738 29.395,13.738c17.066,0 27.73,-8.53 32,-25.597c-6.399,8.531 -13.867,11.73 -22.399,9.597c-4.87,-1.214 -8.347,-4.746 -12.207,-8.66c-6.27,-6.367 -13.53,-13.738 -29.394,-13.738zm0,0"/>
 </g>
</svg>