<svg width="128" height="128" xmlns="http://www.w3.org/2000/svg">

 <g>
  <title>background</title>
  <rect fill="none" id="canvas_background" height="402" width="582" y="-1" x="-1"/>
 </g>
 <g>
  <title>Layer 1</title>
  <path id="svg_1" fill="#f44647" d="m3.656,45.043s-3.027,-2.191 0.61,-5.113l8.468,-7.594s2.426,-2.559 4.989,-0.328l78.175,59.328l0,28.45s-0.039,4.468 -5.757,3.976l-86.485,-78.719zm86.485,78.719"/>
  <path id="svg_2" fill="#f26565" d="m23.809,63.159521l-20.153,18.363s-2.07,1.543 0,4.305l9.356,8.527s2.222,2.395 5.508,-0.328l21.359,-16.238l-16.07,-14.629zm16.07,14.629"/>
  <path id="svg_3" fill="#f26565" d="m59.184,63.311521l36.953,-28.285l-0.239,-28.297s-1.578,-6.176 -6.843,-2.959l-49.176,44.861l19.305,14.68zm-19.305,-14.68"/>
  <path id="svg_4" fill="#f44647" d="m90.14,123.797c2.145,2.203 4.747,1.48 4.747,1.48l28.797,-14.222c3.687,-2.52 3.171,-5.645 3.171,-5.645l0,-84.945c0,-3.735 -3.812,-5.024 -3.812,-5.024l-24.961,-12.061c-5.453,-3.379 -9.027,0.61 -9.027,0.61s4.593,-3.317 6.843,2.96l0,112.317c0,0.773 -0.164,1.53 -0.492,2.214c-0.656,1.332 -2.086,2.57 -5.504,2.051l0.238,0.265zm-0.238,-0.265"/>
 </g>
</svg>