<svg version="1.1" xmlns="http://www.w3.org/2000/svg" xmlns:xlink="http://www.w3.org/1999/xlink" width="511.5057067871094" height="66.25999450683594"><defs></defs><g transform="translate(-257.2167663574219,27.220115661621094)"><rect fill="rgb(255,255,255)" stroke="none" x="0" y="0" width="511.5057067871094" height="66.25999450683594" fill-opacity="0" transform="translate(257.2167663574219,-27.220115661621094)"></rect><g transform="translate(255.7524084263975,33.1298828125) rotate(0,0,0) translate(-255.7524084263975,-33.1298828125) matrix(1,0,-0.1227845609029046,1,255.7524084263975,33.1298828125)"><path fill="rgb(0,0,0)" fill-opacity="1" d="M54.19-13.33L54.24-13.18Q54.24-12.79 53.97-12.65Q53.70-12.50 53.85-11.96L53.85-11.96Q53.46-11.91 53.16-11.57Q52.87-11.23 52.48-11.23L52.48-11.23Q52.24-11.23 52.09-11.47L52.09-11.47Q51.99-11.13 51.72-10.99Q51.46-10.84 51.16-10.74Q50.87-10.64 50.58-10.50Q50.28-10.35 50.19-10.06L50.19-10.06L49.94-10.06Q49.36-10.06 49.04-9.57Q48.72-9.08 48.28-9.08L48.28-9.08Q48.14-9.08 48.09-9.13L48.09-9.13Q47.84-9.08 47.89-8.81Q47.94-8.54 47.74-8.45L47.74-8.45L47.50-8.45Q46.23-8.45 44.91-7.91Q43.59-7.37 42.25-6.69Q40.91-6.01 39.52-5.40Q38.13-4.79 36.71-4.59L36.71-4.59Q36.42-4.30 36.00-4.13Q35.59-3.96 35.10-3.86Q34.61-3.76 34.15-3.64Q33.68-3.52 33.34-3.22L33.34-3.22Q32.12-3.13 30.90-2.78Q29.68-2.44 28.48-2.12Q27.29-1.81 26.04-1.59Q24.80-1.37 23.53-1.46L23.53-1.46Q23.14-1.17 22.67-1.00Q22.21-0.83 21.82-0.54L21.82-0.54Q19.81-0.83 17.84-0.98Q15.86-1.12 13.96-1.66L13.96-1.66Q13.96-1.81 13.86-1.86Q13.76-1.90 13.64-1.93Q13.52-1.95 13.42-2.03Q13.32-2.10 13.42-2.29L13.42-2.29Q12.98-2.15 12.64-2.15L12.64-2.15Q12.15-2.15 11.69-2.39Q11.22-2.64 10.71-2.93Q10.20-3.22 9.66-3.49Q9.12-3.76 8.49-3.76L8.49-3.76Q8.10-4.15 7.78-4.54Q7.46-4.93 7.31-5.52L7.31-5.52Q7.12-5.57 6.90-5.52Q6.68-5.47 6.53-5.47L6.53-5.47Q6.24-5.47 6.24-5.66L6.24-5.66Q5.22-6.40 4.78-7.23Q4.34-8.06 3.80-9.13L3.80-9.13Q3.65-9.47 3.43-9.69Q3.21-9.91 3.12-10.21L3.12-10.21Q2.92-10.69 2.87-11.23Q2.82-11.77 2.80-12.28Q2.77-12.79 2.65-13.31Q2.53-13.82 2.19-14.26L2.19-14.26Q2.29-16.11 2.60-17.97Q2.92-19.82 3.41-21.68L3.41-21.68Q3.60-22.51 3.85-23.29Q4.09-24.07 4.29-24.90L4.29-24.90Q4.34-25.20 4.46-25.32Q4.58-25.44 4.68-25.49L4.68-25.49L4.87-25.63Q4.97-25.73 5.02-25.93L5.02-25.93L5.41-27.59Q5.80-29.20 6.44-30.71Q7.07-32.23 8.14-33.50L8.14-33.50Q8.24-34.72 8.71-35.82Q9.17-36.91 9.76-37.96Q10.34-39.01 10.93-40.04Q11.51-41.06 11.86-42.24L11.86-42.24L11.81-42.33Q11.81-42.53 12.03-42.55Q12.25-42.58 12.34-42.58L12.34-42.58Q12.39-43.36 12.71-43.92Q13.03-44.48 13.39-44.97Q13.76-45.46 14.08-46.02Q14.39-46.58 14.44-47.36L14.44-47.36Q15.37-47.90 16.03-48.71Q16.69-49.51 17.30-50.37Q17.91-51.22 18.59-52.03Q19.28-52.83 20.25-53.32L20.25-53.32Q20.50-53.61 20.40-54.15L20.40-54.15Q21.91-55.27 23.53-56.15Q25.14-57.03 26.55-58.20L26.55-58.20L28.31-58.20Q28.95-58.69 29.73-58.69L29.73-58.69Q30.31-58.69 30.87-58.45Q31.44-58.20 31.95-57.89Q32.46-57.57 33.00-57.25Q33.54-56.93 34.07-56.79L34.07-56.79Q34.61-56.05 34.83-55.10Q35.05-54.15 35.29-53.32L35.29-53.32Q34.85-52.00 34.76-50.61Q34.66-49.22 34.41-47.85L34.41-47.85Q34.07-47.46 33.83-47.00Q33.58-46.53 33.32-46.07Q33.05-45.61 32.75-45.19Q32.46-44.78 31.97-44.53L31.97-44.53Q31.58-43.12 30.75-42.29Q29.92-41.46 29.14-40.33L29.14-40.33Q28.41-39.84 27.58-39.84L27.58-39.84Q26.89-39.84 26.36-40.16Q25.82-40.48 25.38-40.99Q24.94-41.50 24.67-42.11Q24.40-42.72 24.26-43.31L24.26-43.31Q24.60-44.34 25.36-45.07Q26.11-45.80 26.89-46.53Q27.68-47.27 28.26-48.10Q28.85-48.93 28.85-50.10L28.85-50.10Q28.85-50.20 28.82-50.29Q28.80-50.39 28.80-50.49L28.80-50.49Q28.80-50.68 28.95-50.83Q29.09-50.98 29.24-51.07L29.24-51.07L29.53-51.32Q29.68-51.46 29.68-51.66L29.68-51.66Q29.68-51.86 29.48-52.05L29.48-52.05Q27.63-51.90 26.68-51.42Q25.72-50.93 25.19-50.34Q24.65-49.76 24.23-49.19Q23.82-48.63 23.04-48.39L23.04-48.39Q22.89-48.00 22.62-47.73Q22.35-47.46 22.06-47.19Q21.77-46.92 21.55-46.58Q21.33-46.24 21.28-45.75L21.28-45.75L20.40-45.75Q20.21-45.31 19.84-44.90Q19.47-44.48 19.11-44.09Q18.74-43.70 18.47-43.24Q18.20-42.77 18.30-42.24L18.30-42.24Q17.76-42.04 17.50-41.60Q17.23-41.16 16.74-40.87L16.74-40.87L16.74-40.58Q16.74-40.19 16.59-39.84Q16.45-39.50 16.54-39.11L16.54-39.11Q15.96-38.57 15.69-37.77Q15.42-36.96 15.13-36.28L15.13-36.28Q14.44-35.94 14.20-35.35Q13.96-34.77 13.96-33.98L13.96-33.98Q13.22-33.25 12.64-32.28Q12.05-31.30 11.59-30.27Q11.12-29.25 10.73-28.17Q10.34-27.10 9.90-26.17L9.90-26.17L9.90-24.76Q9.22-23.97 8.95-22.92Q8.68-21.88 8.14-21.04L8.14-21.04Q8.05-20.51 8.07-19.97Q8.10-19.43 8.10-18.90L8.10-18.90Q8.10-18.31 8.00-17.68Q7.90-17.04 7.66-16.50L7.66-16.50Q7.85-15.77 7.95-14.77Q8.05-13.77 8.29-12.77Q8.54-11.77 8.98-10.96Q9.41-10.16 10.24-9.86L10.24-9.86Q10.44-8.79 11.20-8.23Q11.95-7.67 12.93-7.32Q13.91-6.98 14.93-6.71Q15.96-6.45 16.74-6.01L16.74-6.01Q17.03-6.15 17.42-6.15L17.42-6.15Q17.81-6.15 18.13-6.05Q18.45-5.96 18.84-5.86L18.84-5.86Q19.52-5.96 20.52-5.96Q21.52-5.96 22.55-6.03Q23.57-6.10 24.45-6.30Q25.33-6.49 25.87-7.03L25.87-7.03Q26.21-7.03 26.33-6.84Q26.46-6.64 26.80-6.64L26.80-6.64Q27.14-6.64 27.82-6.81Q28.51-6.98 29.24-7.20Q29.97-7.42 30.63-7.67Q31.29-7.91 31.58-8.11L31.58-8.11Q31.73-8.06 31.88-8.06L31.88-8.06L32.22-8.06Q32.90-8.06 33.49-8.30Q34.07-8.54 34.76-8.45L34.76-8.45Q37.00-9.57 39.32-10.38Q41.64-11.18 44.03-11.82L44.03-11.82Q44.33-12.26 44.74-12.45Q45.16-12.65 45.64-12.77Q46.13-12.89 46.62-12.96Q47.11-13.04 47.55-13.18L47.55-13.18Q47.84-13.33 48.06-13.55Q48.28-13.77 48.62-13.92L48.62-13.92Q48.97-14.06 49.38-14.11Q49.80-14.16 50.21-14.23Q50.63-14.31 50.99-14.45Q51.36-14.60 51.60-14.94L51.60-14.94Q52.29-14.65 52.99-14.31Q53.70-13.96 54.19-13.33L54.19-13.33ZM77.77-38.67L77.77-38.67Q77.48-38.23 77.43-37.70Q77.38-37.16 77.38-36.72L77.38-36.72Q77.38-36.13 77.41-35.57Q77.43-35.01 77.43-34.47L77.43-34.47L77.43-33.74Q77.33-33.40 77.14-33.06Q76.94-32.71 76.85-32.37L76.85-32.37Q76.16-30.57 76.16-28.76L76.16-28.76L76.16-28.66Q75.92-28.08 75.70-27.59Q75.48-27.10 75.28-26.64Q75.09-26.17 74.99-25.66Q74.89-25.15 74.94-24.46L74.94-24.46Q74.26-22.75 73.14-21.36Q72.01-19.97 70.94-18.51L70.94-18.51Q69.91-18.12 69.06-17.48Q68.20-16.85 67.42-16.06L67.42-16.06Q65.91-15.58 64.44-14.94Q62.98-14.31 61.81-13.23L61.81-13.23Q60.88-13.13 59.95-12.94Q59.02-12.74 58.14-12.35L58.14-12.35L57.56-12.35Q57.12-12.35 56.92-12.55L56.92-12.55Q56.29-12.21 55.61-12.08Q54.92-11.96 54.24-11.96L54.24-11.96Q53.36-11.96 52.51-12.08Q51.65-12.21 50.77-12.35L50.77-12.35Q50.28-13.04 49.40-13.40Q48.53-13.77 47.84-14.11L47.84-14.11Q46.43-16.06 45.79-17.90Q45.16-19.73 44.47-22.02L44.47-22.02Q44.57-22.71 44.81-23.36Q45.06-24.02 45.01-24.80L45.01-24.80Q45.89-27.34 47.33-29.42Q48.77-31.49 50.63-33.40L50.63-33.40Q50.63-33.69 50.75-33.89Q50.87-34.08 50.77-34.47L50.77-34.47Q50.82-34.42 50.97-34.42L50.97-34.42Q51.36-34.42 51.46-34.64Q51.55-34.86 51.50-35.16L51.50-35.16Q53.26-36.28 54.70-37.74Q56.14-39.21 58.00-40.19L58.00-40.19Q58.14-40.63 58.49-40.92Q58.83-41.21 59.02-41.60L59.02-41.60Q60.59-42.04 61.86-42.92Q63.13-43.80 64.54-44.48L64.54-44.48Q65.32-44.92 66.03-45.09Q66.74-45.26 67.57-45.46L67.57-45.46Q67.86-45.56 68.11-45.61Q68.35-45.65 68.64-45.65L68.64-45.65Q69.52-45.65 70.35-45.34Q71.18-45.02 72.06-45.02L72.06-45.02Q72.31-45.02 72.48-45.04Q72.65-45.07 72.84-45.12L72.84-45.12Q73.67-44.09 74.94-43.55L74.94-43.55Q75.23-42.82 75.65-42.29Q76.06-41.75 76.50-41.24Q76.94-40.72 77.31-40.11Q77.68-39.50 77.77-38.67ZM72.89-36.13L72.89-36.13Q72.89-36.38 72.84-36.57L72.84-36.57Q72.35-36.72 71.91-36.96Q71.48-37.21 70.94-37.21L70.94-37.21Q70.60-37.21 70.25-37.06L70.25-37.06Q70.21-37.40 69.99-37.55Q69.77-37.70 69.50-37.82Q69.23-37.94 68.96-38.01Q68.69-38.09 68.50-38.28L68.50-38.28Q68.35-38.67 68.18-39.09Q68.01-39.50 67.57-39.70L67.57-39.70Q67.13-39.26 66.54-38.99Q65.96-38.72 65.35-38.48Q64.74-38.23 64.18-37.89Q63.61-37.55 63.22-37.06L63.22-37.06L62.34-37.06Q62.05-36.52 61.51-36.25Q60.98-35.99 60.59-35.50L60.59-35.50Q59.81-35.11 59.15-34.55Q58.49-33.98 57.85-33.37Q57.22-32.76 56.61-32.13Q56.00-31.49 55.31-30.96L55.31-30.96Q54.68-29.59 53.92-28.59Q53.16-27.59 52.51-26.56Q51.85-25.54 51.38-24.34Q50.92-23.14 50.92-21.39L50.92-21.39L50.92-20.90Q50.92-20.65 50.97-20.41L50.97-20.41Q51.60-19.73 52.02-18.95Q52.43-18.16 53.41-17.82L53.41-17.82Q54.39-17.43 55.48-17.48Q56.58-17.53 57.61-17.24L57.61-17.24Q59.95-17.68 62.12-18.68Q64.30-19.68 66.25-21.09L66.25-21.09Q66.54-21.34 66.93-21.61Q67.32-21.88 67.57-22.17L67.57-22.17Q67.81-22.41 67.98-22.71Q68.15-23.00 68.35-23.24L68.35-23.24Q68.74-23.88 69.23-24.51Q69.72-25.15 70.25-25.68L70.25-25.68Q70.50-26.76 70.89-27.76Q71.28-28.76 71.67-29.74Q72.06-30.71 72.33-31.74Q72.60-32.76 72.60-33.89L72.60-33.89Q72.60-34.13 72.57-34.42Q72.55-34.72 72.50-34.96L72.50-34.96Q72.89-35.50 72.89-36.13ZM111.56-18.31L111.56-18.31Q111.37-17.58 110.93-17.09Q110.49-16.60 109.93-16.21Q109.37-15.82 108.73-15.50Q108.10-15.19 107.51-14.79L107.51-14.79L106.88-14.79Q104.82-14.79 103.73-15.80Q102.63-16.80 102.04-18.29Q101.46-19.78 101.19-21.48Q100.92-23.19 100.53-24.61L100.53-24.61Q99.94-24.12 99.55-23.46Q99.16-22.80 98.75-22.17Q98.33-21.53 97.82-21.00Q97.31-20.46 96.48-20.26L96.48-20.26Q96.33-19.92 96.16-19.58Q95.99-19.24 95.94-18.85L95.94-18.85Q94.86-18.26 93.98-17.48Q93.11-16.70 92.23-15.87Q91.35-15.04 90.44-14.28Q89.54-13.53 88.42-13.04L88.42-13.04Q88.37-13.09 88.22-13.09L88.22-13.09Q87.64-13.09 87.15-12.82Q86.66-12.55 86.07-12.55L86.07-12.55Q85.68-12.55 85.37-12.70Q85.05-12.84 84.73-13.04Q84.41-13.23 84.07-13.33Q83.73-13.43 83.34-13.38L83.34-13.38Q82.85-14.26 82.05-15.01Q81.24-15.77 81.05-16.75L81.05-16.75Q80.95-17.19 80.92-17.65Q80.90-18.12 80.80-18.60L80.80-18.60Q80.65-19.34 80.41-20.09Q80.17-20.85 80.02-21.63L80.02-21.63Q80.26-22.95 80.48-24.54Q80.70-26.12 81.02-27.71Q81.34-29.30 81.90-30.74Q82.46-32.18 83.34-33.20L83.34-33.20L83.29-33.54Q83.29-34.33 83.58-35.01Q83.88-35.69 84.22-36.33Q84.56-36.96 84.81-37.60Q85.05-38.23 84.90-39.01L84.90-39.01Q85.49-39.31 86.12-39.50Q86.76-39.70 87.44-39.70L87.44-39.70Q88.08-39.70 88.61-39.50L88.61-39.50Q88.52-39.11 88.96-39.01L88.96-39.01L88.96-38.87Q88.96-37.84 88.71-36.87Q88.47-35.89 88.13-34.94Q87.78-33.98 87.47-33.03Q87.15-32.08 87.00-31.10L87.00-31.10Q86.81-31.05 86.73-30.91Q86.66-30.76 86.61-30.62Q86.56-30.47 86.47-30.37Q86.37-30.27 86.17-30.27L86.17-30.27Q85.88-28.56 85.56-26.88Q85.24-25.20 85.24-23.49L85.24-23.49Q85.24-22.46 85.44-21.39Q85.64-20.31 86.17-19.34L86.17-19.34L86.37-19.38Q86.90-19.38 87.22-19.14Q87.54-18.90 88.08-18.65L88.08-18.65Q88.47-18.75 88.81-18.92Q89.15-19.09 89.10-19.53L89.10-19.53Q89.74-19.58 90.18-19.85Q90.62-20.12 90.96-20.46L90.96-20.46L91.69-21.14Q92.08-21.48 92.62-21.63L92.62-21.63Q92.62-21.92 92.76-22.07L92.76-22.07L93.06-22.36Q93.20-22.51 93.28-22.68Q93.35-22.85 93.30-23.19L93.30-23.19Q93.89-23.24 94.20-23.49Q94.52-23.73 94.79-24.05Q95.06-24.37 95.30-24.71Q95.55-25.05 95.94-25.29L95.94-25.29Q96.28-26.03 96.89-27.25Q97.50-28.47 98.11-29.79Q98.72-31.10 99.19-32.30Q99.65-33.50 99.65-34.13L99.65-34.13Q99.65-34.38 99.53-34.57Q99.40-34.77 99.45-35.01L99.45-35.01L99.45-35.16Q99.84-35.64 100.16-36.23Q100.48-36.82 100.85-37.35Q101.21-37.89 101.65-38.33Q102.09-38.77 102.77-39.01L102.77-39.01Q103.56-38.77 104.36-38.67Q105.17-38.57 105.90-38.28L105.90-38.28Q105.95-37.06 106.14-35.45Q106.34-33.84 106.83-32.71L106.83-32.71Q106.83-32.08 106.80-31.49Q106.78-30.91 106.78-30.32L106.78-30.32Q106.78-29.35 106.85-28.32Q106.92-27.29 107.17-26.42L107.17-26.42Q106.83-25.68 106.83-24.85L106.83-24.85Q106.83-23.73 107.17-22.73Q107.51-21.73 107.66-20.61L107.66-20.61Q108.29-19.73 109.32-19.73L109.32-19.73Q109.56-19.73 109.73-19.78Q109.90-19.82 110.10-19.92L110.10-19.92Q110.49-19.48 110.81-19.07Q111.12-18.65 111.56-18.31ZM175.63-18.90L175.63-18.90Q175.53-18.16 175.11-17.77Q174.70-17.38 174.16-17.04L174.16-17.04Q173.92-17.09 173.70-17.11Q173.48-17.14 173.23-17.14L173.23-17.14Q171.72-17.19 170.38-16.75Q169.03-16.31 167.62-16.11L167.62-16.11Q167.13-16.02 166.71-16.04Q166.30-16.06 165.86-15.97L165.86-15.97Q164.30-15.72 162.54-15.58Q160.78-15.43 159.02-15.21Q157.27-14.99 155.58-14.67Q153.90-14.36 152.43-13.77L152.43-13.77Q152.29-13.87 152.14-13.99Q151.99-14.11 151.80-14.11L151.80-14.11Q151.31-14.11 150.87-13.96Q150.43-13.82 149.99-13.87L149.99-13.87Q149.50-13.57 148.94-13.45Q148.38-13.33 147.82-13.26Q147.26-13.18 146.72-13.04Q146.18-12.89 145.69-12.50L145.69-12.50Q145.30-12.70 144.74-12.72Q144.18-12.74 143.98-13.09L143.98-13.09Q142.86-12.55 141.62-12.40Q140.37-12.26 139.10-12.30L139.10-12.30Q138.27-12.35 137.20-12.55Q136.12-12.74 135.05-13.11Q133.98-13.48 133.05-13.99Q132.12-14.50 131.63-15.23L131.63-15.23Q131.29-15.72 131.14-16.31Q131.00-16.89 130.46-17.19L130.46-17.19Q130.61-18.31 130.80-19.38Q131.00-20.46 131.19-21.58L131.19-21.58Q132.17-22.41 133.05-23.34Q133.93-24.27 134.71-25.29L134.71-25.29Q135.64-25.73 136.44-26.37Q137.25-27.00 138.05-27.66Q138.86-28.32 139.66-28.96Q140.47-29.59 141.40-30.08L141.40-30.08Q141.54-30.42 141.81-30.64Q142.08-30.86 142.37-31.08Q142.67-31.30 142.91-31.57Q143.15-31.84 143.25-32.23L143.25-32.23Q144.96-33.25 146.23-34.81Q147.50-36.38 147.89-38.33L147.89-38.33Q147.06-39.01 146.01-39.23Q144.96-39.45 143.84-39.55L143.84-39.55Q142.86-39.60 141.81-39.55Q140.76-39.50 139.69-39.60L139.69-39.60Q138.61-39.26 137.47-39.16Q136.32-39.06 135.20-38.99Q134.07-38.92 132.97-38.70Q131.88-38.48 130.85-37.89L130.85-37.89Q130.65-37.89 130.48-37.94Q130.31-37.99 130.12-37.99L130.12-37.99Q128.56-38.04 127.19-37.38Q125.82-36.72 124.50-36.08L124.50-36.08Q124.40-35.89 124.40-35.79L124.40-35.79Q124.40-35.50 124.53-35.23Q124.65-34.96 124.65-34.67L124.65-34.67Q124.60-34.62 124.60-34.57Q124.60-34.52 124.55-34.47L124.55-34.47Q124.50-34.23 124.43-34.03Q124.36-33.84 124.26-33.59L124.26-33.59Q123.72-32.03 123.67-30.52L123.67-30.52Q123.62-29.25 123.67-28.03Q123.72-26.81 123.67-25.54L123.67-25.54Q123.57-23.97 123.18-22.61L123.18-22.61Q123.43-21.44 123.62-20.14Q123.82-18.85 124.11-17.58Q124.40-16.31 124.82-15.11Q125.23-13.92 125.92-12.84L125.92-12.84Q125.87-12.74 125.97-12.70Q126.06-12.65 126.16-12.65L126.16-12.65L126.55-12.65Q126.80-12.65 126.75-12.45L126.75-12.45Q126.85-12.30 126.89-12.18Q126.94-12.06 127.09-11.96L127.09-11.96Q127.19-11.82 127.09-11.57L127.09-11.57Q127.04-10.60 126.60-9.77Q126.16-8.94 126.06-7.96L126.06-7.96Q125.48-7.81 124.99-7.81L124.99-7.81Q124.16-7.86 123.53-8.28Q122.89-8.69 122.35-9.28Q121.82-9.86 121.33-10.47Q120.84-11.08 120.25-11.52L120.25-11.52Q119.91-12.89 119.60-14.55Q119.28-16.21 118.55-17.38L118.55-17.38Q118.74-17.82 118.74-18.46L118.74-18.46Q118.79-19.43 118.57-20.39Q118.35-21.34 118.45-22.31L118.45-22.31Q118.45-22.85 118.57-23.39Q118.69-23.93 118.74-24.46L118.74-24.46Q118.79-25.29 118.57-26.07Q118.35-26.86 118.40-27.69L118.40-27.69Q118.45-28.08 118.57-28.44Q118.69-28.81 118.94-29.10L118.94-29.10Q118.69-29.69 118.79-30.22L118.79-30.22Q118.84-31.05 118.98-31.79Q119.13-32.52 119.18-33.25L119.18-33.25Q119.18-33.64 119.13-34.01Q119.08-34.38 118.98-34.72L118.98-34.72L118.55-34.86Q118.25-34.86 117.98-34.72Q117.72-34.57 117.52-34.38Q117.32-34.18 117.18-34.06Q117.03-33.94 116.89-33.94L116.89-33.94Q116.79-33.94 116.67-33.96Q116.54-33.98 116.45-33.98L116.45-33.98Q116.35-33.98 116.08-33.79Q115.81-33.59 115.44-33.37Q115.08-33.15 114.74-32.93Q114.39-32.71 114.20-32.67L114.20-32.67Q113.66-32.76 113.35-33.03Q113.03-33.30 112.76-33.57Q112.49-33.84 112.20-34.06Q111.90-34.28 111.47-34.23L111.47-34.23Q111.32-34.52 111.29-34.86Q111.27-35.21 111.32-35.55L111.32-35.55L111.32-36.33Q111.66-36.96 112.22-37.38Q112.78-37.79 113.42-38.09L113.42-38.09L114.69-38.67Q115.32-38.96 115.86-39.40L115.86-39.40L116.30-39.40Q117.18-39.36 117.84-39.75Q118.50-40.14 119.08-40.65Q119.67-41.16 120.28-41.70Q120.89-42.24 121.62-42.53L121.62-42.53Q122.16-42.29 122.74-42.11Q123.33-41.94 123.97-41.89L123.97-41.89Q124.60-41.89 125.28-42.09Q125.97-42.29 126.36-42.82L126.36-42.82Q126.60-42.72 126.77-42.70Q126.94-42.68 127.19-42.68L127.19-42.68Q127.92-42.63 128.65-42.90Q129.39-43.16 130.07-43.55L130.07-43.55Q131.05-43.51 132.00-43.68Q132.95-43.85 133.90-44.04Q134.85-44.24 135.81-44.41Q136.76-44.58 137.73-44.53L137.73-44.53Q139.35-44.48 140.91-44.82Q142.47-45.17 144.08-45.07L144.08-45.07Q145.21-45.02 146.30-44.90Q147.40-44.78 148.53-44.82L148.53-44.82Q149.16-44.53 149.67-44.31Q150.19-44.09 150.97-44.19L150.97-44.19Q152.53-42.87 153.80-41.11L153.80-41.11L153.80-40.28Q153.75-39.16 153.41-38.09Q153.07-37.01 152.60-35.96Q152.14-34.91 151.60-33.91Q151.06-32.91 150.58-31.93L150.58-31.93Q147.40-29.05 144.23-26.22Q141.06-23.39 137.69-20.75L137.69-20.75Q137.59-20.26 137.42-19.87Q137.25-19.48 137.20-19.04L137.20-19.04Q137.20-18.80 137.25-18.65L137.25-18.65Q137.59-18.55 137.86-18.29Q138.13-18.02 138.03-17.58L138.03-17.58L138.47-17.58Q138.71-17.58 138.71-17.38L138.71-17.38L139.49-17.33Q141.35-17.24 143.20-17.43Q145.06-17.63 146.94-17.87Q148.82-18.12 150.67-18.33Q152.53-18.55 154.39-18.60L154.39-18.60Q154.82-18.75 155.31-18.85Q155.80-18.95 156.19-19.24L156.19-19.24L156.34-19.24Q156.68-19.24 156.85-19.04Q157.02-18.85 157.36-18.80L157.36-18.80Q157.61-18.80 157.88-18.90Q158.14-18.99 158.44-19.04L158.44-19.04Q159.12-19.24 159.88-19.29Q160.64-19.34 161.37-19.43L161.37-19.43Q164.20-19.68 166.98-19.75Q169.77-19.82 172.55-20.46L172.55-20.46Q172.79-20.12 173.23-20.00Q173.67-19.87 174.16-19.75Q174.65-19.63 175.06-19.48Q175.48-19.34 175.63-18.90ZM202.68-41.80L202.82-41.80Q202.63-41.16 202.19-40.63L202.19-40.63L201.36-39.60Q200.97-39.11 200.70-38.55Q200.43-37.99 200.53-37.26L200.53-37.26Q200.43-37.26 200.28-37.28Q200.14-37.30 200.04-37.30L200.04-37.30Q199.26-37.30 198.84-36.94Q198.43-36.57 197.74-36.33L197.74-36.33Q197.65-36.62 197.50-36.89Q197.35-37.16 197.06-37.26L197.06-37.26Q195.89-37.01 194.72-36.89Q193.55-36.77 192.37-36.57L192.37-36.57Q191.84-36.47 191.30-36.30Q190.76-36.13 190.18-35.99L190.18-35.99Q189.88-35.89 189.54-35.91Q189.20-35.94 188.86-35.89L188.86-35.89Q187.69-35.84 186.32-35.72Q184.95-35.60 183.88-34.96L183.88-34.96Q183.39-35.06 182.85-35.11Q182.31-35.16 181.78-35.16L181.78-35.16Q180.61-35.16 179.21-34.94Q177.82-34.72 176.75-34.08L176.75-34.08Q176.50-34.18 176.24-34.23Q175.97-34.28 175.63-34.28L175.63-34.28Q175.53-34.28 175.48-34.25Q175.43-34.23 175.33-34.23L175.33-34.23Q175.28-33.79 175.45-33.37Q175.63-32.96 176.06-32.71L176.06-32.71Q175.87-32.18 175.87-31.54L175.87-31.54Q175.87-30.71 175.99-29.88Q176.11-29.05 176.11-28.22L176.11-28.22Q176.11-27.29 175.87-26.76L175.87-26.76Q176.36-25.29 176.36-23.63L176.36-23.63Q176.36-23.05 176.28-22.49Q176.21-21.92 176.21-21.29L176.21-21.29Q176.21-20.75 176.60-20.43Q176.99-20.12 176.99-19.58L176.99-19.58Q176.99-19.38 176.89-19.19L176.89-19.19Q177.58-19.34 178.21-19.60Q178.85-19.87 179.53-19.87L179.53-19.87Q179.92-19.87 180.29-19.73Q180.65-19.58 180.95-19.34L180.95-19.34Q180.90-19.09 180.87-18.80Q180.85-18.51 180.85-18.21L180.85-18.21Q180.85-17.68 180.87-17.21Q180.90-16.75 180.95-16.21L180.95-16.21Q180.56-15.53 180.04-14.99Q179.53-14.45 179.34-13.62L179.34-13.62Q178.60-13.62 178.04-13.31Q177.48-12.99 176.99-12.62Q176.50-12.26 176.02-11.94Q175.53-11.62 174.94-11.62L174.94-11.62Q174.21-11.62 173.92-11.84Q173.62-12.06 173.48-12.30Q173.33-12.55 173.21-12.74Q173.09-12.94 172.70-12.89L172.70-12.89Q172.60-13.53 172.31-14.09Q172.01-14.65 171.69-15.19Q171.38-15.72 171.06-16.28Q170.74-16.85 170.60-17.43L170.60-17.43Q170.30-18.70 170.35-20.07Q170.40-21.44 169.91-22.71L169.91-22.71Q170.01-23.39 170.06-24.10Q170.11-24.80 170.11-25.49L170.11-25.49Q170.11-26.86 170.03-28.20Q169.96-29.54 169.91-30.96L169.91-30.96Q169.57-31.40 169.50-31.96Q169.42-32.52 169.38-33.06L169.38-33.06Q169.23-33.20 169.06-33.35Q168.89-33.50 168.84-33.74L168.84-33.74Q168.45-33.84 168.25-33.84L168.25-33.84Q167.57-33.84 167.10-33.52Q166.64-33.20 166.25-33.20L166.25-33.20Q165.86-33.20 165.52-33.30Q165.18-33.40 164.83-33.40L164.83-33.40Q164.54-33.40 164.52-33.28Q164.49-33.15 164.30-33.06L164.30-33.06Q164.15-32.96 163.61-32.86Q163.08-32.76 162.42-32.69Q161.76-32.62 161.15-32.57Q160.54-32.52 160.34-32.52L160.34-32.52Q159.56-32.52 159.15-32.84Q158.73-33.15 158.14-33.54L158.14-33.54Q158.24-33.84 158.24-33.94L158.24-33.94Q158.24-34.42 157.95-34.74Q157.66-35.06 157.66-35.30L157.66-35.30Q157.66-35.84 158.07-36.13Q158.49-36.43 158.54-37.06L158.54-37.06Q159.66-37.55 160.83-37.79Q162.00-38.04 163.22-38.18Q164.44-38.33 165.64-38.53Q166.84-38.72 168.01-39.16L168.01-39.16Q168.35-39.11 168.67-39.09Q168.98-39.06 169.33-39.06L169.33-39.06Q170.79-39.06 172.23-39.38Q173.67-39.70 175.19-39.70L175.19-39.70Q175.58-39.70 175.97-39.65Q176.36-39.60 176.75-39.50L176.75-39.50Q178.70-39.79 180.63-40.14Q182.56-40.48 184.61-40.72L184.61-40.72Q185.59-40.82 186.54-40.89Q187.49-40.97 188.47-41.11L188.47-41.11Q188.81-41.16 188.98-41.28Q189.15-41.41 189.15-41.80L189.15-41.80Q189.59-41.60 190.13-41.60L190.13-41.60Q190.96-41.60 191.74-41.89Q192.52-42.19 193.35-42.19L193.35-42.19Q193.55-42.19 193.69-42.16Q193.84-42.14 193.98-42.14L193.98-42.14Q194.33-42.14 194.35-42.46Q194.38-42.77 194.81-42.87L194.81-42.87Q195.16-42.97 195.79-43.02Q196.43-43.07 197.13-43.14Q197.84-43.21 198.45-43.33Q199.06-43.46 199.36-43.70L199.36-43.70L199.70-44.24Q200.58-44.19 200.99-43.48Q201.41-42.77 201.46-41.94L201.46-41.94Q201.65-41.75 202.02-41.77Q202.38-41.80 202.68-41.80L202.68-41.80ZM228.12-42.48L228.12-42.48Q228.02-41.89 227.85-41.48Q227.68-41.06 227.77-40.38L227.77-40.38Q227.29-40.33 227.02-40.06Q226.75-39.79 226.58-39.45Q226.41-39.11 226.24-38.75Q226.06-38.38 225.82-38.09L225.82-38.09Q226.21-36.33 226.26-34.52Q226.31-32.71 226.50-30.96L226.50-30.96Q226.75-28.71 227.26-26.54Q227.77-24.37 227.77-22.12L227.77-22.12Q227.77-21.44 227.75-20.85Q227.73-20.26 227.73-19.63L227.73-19.63Q227.73-19.24 227.75-18.82Q227.77-18.41 227.77-18.02L227.77-18.02Q227.77-16.60 227.41-15.19Q227.04-13.77 226.85-12.35L226.85-12.35Q226.26-11.82 225.85-11.18Q225.43-10.55 224.99-10.01Q224.55-9.47 223.97-9.06Q223.38-8.64 222.50-8.50L222.50-8.50Q222.35-8.01 221.94-7.76Q221.52-7.52 221.23-7.08L221.23-7.08L221.13-7.08Q219.91-7.08 219.03-7.42Q218.15-7.76 217.40-8.20Q216.64-8.64 215.86-9.13Q215.08-9.62 214.05-9.91L214.05-9.91Q212.69-11.04 211.56-12.38Q210.44-13.72 209.02-14.79L209.02-14.79Q208.68-15.77 208.12-16.41Q207.56-17.04 207.02-17.87L207.02-17.87Q206.78-18.21 206.66-18.51Q206.53-18.80 206.34-19.19L206.34-19.19Q206.19-19.58 205.87-19.73Q205.56-19.87 205.31-20.07L205.31-20.07Q204.92-21.58 204.19-22.85Q203.46-24.12 202.48-25.29L202.48-25.29Q202.19-24.76 202.02-24.15Q201.85-23.54 201.70-22.92Q201.55-22.31 201.33-21.70Q201.11-21.09 200.77-20.61L200.77-20.61L200.77-20.46Q200.77-20.21 200.97-20.17Q201.16-20.12 201.16-19.87L201.16-19.87Q201.16-19.82 201.14-19.78Q201.11-19.73 201.11-19.68L201.11-19.68Q200.87-19.48 200.75-19.19Q200.63-18.90 200.23-18.85L200.23-18.85Q200.28-18.60 200.28-18.36L200.28-18.36L200.28-17.92Q200.28-16.50 199.97-15.09Q199.65-13.67 199.65-12.21L199.65-12.21L199.65-11.57Q199.65-11.23 199.70-10.94L199.70-10.94Q199.80-10.64 199.99-10.35Q200.19-10.06 200.19-9.81L200.19-9.81Q200.19-9.47 199.89-9.18L199.89-9.18Q200.23-8.94 200.67-8.64Q201.11-8.35 201.48-7.98Q201.85-7.62 202.09-7.20Q202.33-6.79 202.33-6.30L202.33-6.30Q202.33-5.47 201.80-5.13Q201.26-4.79 200.50-4.59Q199.75-4.39 198.94-4.22Q198.14-4.05 197.60-3.61L197.60-3.61L197.45-3.61Q196.87-3.61 196.57-3.96Q196.28-4.30 195.69-4.30L195.69-4.30Q194.77-5.81 194.42-7.69Q194.08-9.57 194.08-11.28L194.08-11.28Q194.08-13.38 194.45-15.48Q194.81-17.58 195.33-19.63Q195.84-21.68 196.45-23.71Q197.06-25.73 197.60-27.78L197.60-27.78L197.65-27.93Q197.65-28.17 197.52-28.27Q197.40-28.37 197.40-28.56L197.40-28.56Q197.40-28.66 197.45-28.66L197.45-28.66Q197.60-29.15 197.77-29.59Q197.94-30.03 198.04-30.57L198.04-30.57Q198.33-31.93 198.45-33.37Q198.57-34.81 198.60-36.23Q198.62-37.65 198.70-39.09Q198.77-40.53 199.01-41.94L199.01-41.94Q199.40-42.33 199.75-42.77Q200.09-43.21 200.63-43.55L200.63-43.55Q201.60-43.51 202.58-43.26Q203.56-43.02 204.43-42.48L204.43-42.48Q205.02-40.38 205.24-38.28Q205.46-36.18 206.00-34.08L206.00-34.08L206.00-33.94Q206.00-33.69 206.27-33.72Q206.53-33.74 206.68-33.54L206.68-33.54Q206.58-33.40 206.56-33.20Q206.53-33.01 206.53-32.81L206.53-32.81L206.53-31.98Q206.63-31.59 206.78-31.15Q206.92-30.71 207.41-30.62L207.41-30.62Q207.66-29.05 208.14-27.73Q208.63-26.42 209.27-25.20Q209.90-23.97 210.64-22.78Q211.37-21.58 212.15-20.26L212.15-20.26Q213.37-19.34 214.25-18.14Q215.13-16.94 216.03-15.84Q216.93-14.75 218.08-13.92Q219.23-13.09 221.08-12.89L221.08-12.89Q221.33-13.09 221.43-13.43L221.43-13.43L221.67-14.11Q221.82-14.45 221.99-14.72Q222.16-14.99 222.50-15.14L222.50-15.14Q222.60-16.50 222.72-17.92Q222.84-19.34 223.33-20.61L223.33-20.61Q223.09-21.04 223.09-21.68L223.09-21.68Q223.09-22.17 223.16-22.61Q223.23-23.05 223.23-23.49L223.23-23.49Q223.23-24.41 222.84-25L222.84-25Q222.84-25.34 222.89-25.71Q222.94-26.07 223.18-26.42L223.18-26.42Q222.79-27.39 222.57-28.47Q222.35-29.54 222.35-30.66L222.35-30.66Q222.35-31.30 222.50-31.98L222.50-31.98Q222.21-32.71 222.11-33.69L222.11-33.69L221.91-35.69Q221.82-36.72 221.62-37.60Q221.43-38.48 220.89-39.01L220.89-39.01Q221.18-39.45 221.18-40.04L221.18-40.04Q221.18-41.02 220.89-41.89Q220.60-42.77 220.60-43.75L220.60-43.75Q220.60-44.43 220.89-45.12L220.89-45.12Q221.96-45.07 223.01-44.90Q224.06-44.73 225.09-44.73L225.09-44.73Q225.38-44.34 225.77-44.09Q226.16-43.85 226.60-43.63Q227.04-43.41 227.46-43.16Q227.87-42.92 228.12-42.48ZM263.91-41.46L263.91-41.46L263.91-41.26Q263.56-41.16 263.56-40.77L263.56-40.77Q263.03-40.53 262.44-40.41Q261.86-40.28 261.32-40.04L261.32-40.04Q260.78-40.09 260.22-40.11Q259.66-40.14 259.12-40.14L259.12-40.14Q257.66-40.14 256.19-40.04Q254.73-39.94 253.26-40.04L253.26-40.04Q252.58-39.65 251.77-39.43Q250.97-39.21 250.23-39.21L250.23-39.21Q249.65-39.21 249.21-39.36L249.21-39.36Q248.04-38.77 246.65-38.38Q245.25-37.99 243.84-37.62Q242.42-37.26 241.13-36.79Q239.83-36.33 238.86-35.50L238.86-35.50Q238.76-34.81 238.71-34.16Q238.66-33.50 238.66-32.86L238.66-32.86Q238.66-32.18 238.74-31.59Q238.81-31.01 239.05-30.42L239.05-30.42Q239.30-30.32 239.61-30.27Q239.93-30.22 240.18-30.22L240.18-30.22Q240.42-30.22 240.66-30.30Q240.91-30.37 241.01-30.62L241.01-30.62Q241.74-30.71 242.47-30.69Q243.20-30.66 243.94-30.66L243.94-30.66Q244.67-30.66 245.38-30.71Q246.08-30.76 246.77-30.96L246.77-30.96Q247.55-31.15 248.31-31.20Q249.06-31.25 249.80-31.30Q250.53-31.35 251.31-31.47Q252.09-31.59 252.92-31.98L252.92-31.98Q253.56-31.74 254.21-31.74Q254.87-31.74 255.51-31.64L255.51-31.64Q255.85-31.40 256.07-31.10Q256.29-30.81 256.29-30.42L256.29-30.42Q256.29-29.74 255.80-29.05Q255.31-28.37 255.02-27.78L255.02-27.78L254.48-27.78Q253.31-27.78 252.21-27.47Q251.11-27.15 250.02-26.73Q248.92-26.32 247.82-26.00Q246.72-25.68 245.55-25.68L245.55-25.68Q245.35-25.68 245.33-25.46Q245.30-25.24 245.21-25.15L245.21-25.15Q244.96-25.20 244.47-25.20L244.47-25.20Q243.35-25.20 242.32-24.95Q241.30-24.71 240.23-24.71L240.23-24.71Q239.93-24.71 239.64-24.73Q239.35-24.76 239.05-24.80L239.05-24.80Q238.81-24.41 238.42-24.29Q238.03-24.17 237.69-23.88L237.69-23.88Q237.54-23.44 237.52-22.80Q237.49-22.17 237.47-21.51Q237.44-20.85 237.34-20.26Q237.25-19.68 236.95-19.34L236.95-19.34Q237.00-19.09 237.34-19.17Q237.69-19.24 237.69-18.85L237.69-18.85Q237.69-18.41 237.59-17.92Q237.49-17.43 237.49-16.94L237.49-16.94Q237.49-16.02 237.71-14.92Q237.93-13.82 238.39-12.89Q238.86-11.96 239.64-11.35Q240.42-10.74 241.59-10.74L241.59-10.74Q242.37-10.74 243.06-11.04Q243.74-11.33 244.18-12.01L244.18-12.01L244.42-12.06Q244.62-12.06 244.79-12.01Q244.96-11.96 245.16-11.96L245.16-11.96Q245.45-11.96 245.91-12.33Q246.38-12.70 246.94-13.18Q247.50-13.67 248.09-14.14Q248.67-14.60 249.21-14.79L249.21-14.79Q249.55-15.48 249.87-16.16Q250.19-16.85 250.82-17.24L250.82-17.24L250.82-18.65Q251.31-19.19 251.87-19.63Q252.43-20.07 252.73-20.75L252.73-20.75Q252.97-20.65 253.19-20.61Q253.41-20.56 253.65-20.56L253.65-20.56Q253.90-20.56 254.17-20.61Q254.43-20.65 254.68-20.75L254.68-20.75Q255.07-20.21 255.29-19.56Q255.51-18.90 255.85-18.31L255.85-18.31Q255.41-17.43 254.82-16.21Q254.24-14.99 253.56-13.77Q252.87-12.55 252.11-11.45Q251.36-10.35 250.63-9.77L250.63-9.77Q250.48-9.62 249.99-9.42L249.99-9.42Q249.45-9.03 249.01-8.67Q248.57-8.30 248.18-7.81L248.18-7.81Q246.77-7.37 245.47-6.64Q244.18-5.91 242.91-5.22L242.91-5.22Q242.32-5.37 241.64-5.37L241.64-5.37Q241.06-5.37 240.47-5.30Q239.88-5.22 239.20-5.22L239.20-5.22Q239.00-5.47 238.64-5.54Q238.27-5.62 238.37-6.05L238.37-6.05Q236.71-6.15 235.68-6.96Q234.66-7.76 233.95-8.94Q233.24-10.11 232.80-11.47Q232.36-12.84 231.88-14.11L231.88-14.11L231.88-14.26Q231.88-14.50 232.07-14.55Q232.27-14.60 232.27-14.84L232.27-14.84Q232.27-14.94 232.22-14.99L232.22-14.99Q232.07-15.53 231.97-15.92Q231.88-16.31 231.88-16.85L231.88-16.85Q231.88-17.63 231.97-18.38Q232.07-19.14 232.07-19.92L232.07-19.92Q232.07-20.70 231.88-21.29L231.88-21.29Q232.07-21.53 232.19-21.95Q232.31-22.36 232.36-22.80Q232.41-23.24 232.44-23.68Q232.46-24.12 232.56-24.46L232.56-24.46Q232.36-25 232.22-25.42Q232.07-25.83 232.07-26.42L232.07-26.42L232.07-26.76Q232.56-27.59 232.90-28.47Q233.24-29.35 233.63-30.27L233.63-30.27L233.63-30.42Q233.63-31.84 233.54-33.25Q233.44-34.67 233.44-36.08L233.44-36.08L233.44-37.01Q233.44-37.50 233.49-37.94L233.49-37.94Q233.88-38.13 234.07-38.48Q234.27-38.82 234.66-39.01L234.66-39.01L236.27-39.01L236.56-39.50Q236.71-39.75 236.76-40.04L236.76-40.04Q237.30-40.19 237.81-40.45Q238.32-40.72 238.76-41.02L238.76-41.02Q239.44-41.41 240.01-41.72Q240.57-42.04 241.13-42.26Q241.69-42.48 242.32-42.63Q242.96-42.77 243.79-42.87L243.79-42.87Q244.18-42.87 244.30-43.02Q244.42-43.16 244.67-43.36L244.67-43.36Q245.25-43.26 245.84-43.19Q246.43-43.12 247.01-43.12L247.01-43.12Q248.18-43.12 249.21-43.55L249.21-43.55Q250.67-43.55 252.11-43.60Q253.56-43.65 255.02-43.65L255.02-43.65Q256.29-43.65 257.56-43.55Q258.83-43.46 260.05-43.21L260.05-43.21Q260.49-43.36 261.03-43.36L261.03-43.36Q261.61-43.36 262.22-43.24Q262.83-43.12 263.42-43.21L263.42-43.21Q263.47-42.68 263.69-42.31Q263.91-41.94 263.91-41.46ZM287.39-43.99L287.39-43.99Q287.39-43.55 287.03-43.26Q286.66-42.97 286.66-42.82L286.66-42.82Q286.66-42.53 286.76-42.41Q286.86-42.29 286.86-42.14L286.86-42.14L286.86-41.89Q286.37-41.41 286.12-40.84Q285.88-40.28 285.73-39.67Q285.59-39.06 285.46-38.43Q285.34-37.79 285.15-37.21L285.15-37.21Q284.90-36.62 284.51-36.21Q284.12-35.79 283.88-35.25L283.88-35.25Q283.49-34.38 283.29-33.45Q283.10-32.52 282.46-31.74L282.46-31.74L282.46-31.49Q282.41-31.15 282.66-30.91L282.66-30.91Q281.73-29.69 281.19-28.00Q280.65-26.32 280.31-24.49Q279.97-22.66 279.73-20.83Q279.48-18.99 279.14-17.53L279.14-17.53Q279.39-16.46 279.90-15.50Q280.41-14.55 280.90-13.53L280.90-13.53Q281.88-13.28 282.78-12.84Q283.68-12.40 284.07-11.43L284.07-11.43Q283.98-10.45 283.44-9.91Q282.90-9.38 282.12-8.79L282.12-8.79Q281.58-8.98 281.24-9.11Q280.90-9.23 280.22-9.13L280.22-9.13Q279.29-9.86 278.48-10.30Q277.68-10.74 277.04-11.82L277.04-11.82Q276.94-11.96 276.75-11.96L276.75-11.96L276.31-11.96Q276.06-12.55 275.72-13.21Q275.38-13.87 275.04-14.58Q274.70-15.28 274.45-15.99Q274.21-16.70 274.21-17.29L274.21-17.29Q274.21-19.78 274.67-22.24Q275.14-24.71 275.14-27.25L275.14-27.25L275.14-27.73Q274.16-27.49 273.21-27.05Q272.26-26.61 271.28-26.37L271.28-26.37Q270.94-26.27 270.89-26.03Q270.84-25.78 270.60-25.63L270.60-25.63Q270.11-25.59 269.67-25.56Q269.23-25.54 268.84-25.54L268.84-25.54Q268.01-25.54 267.10-25.61Q266.20-25.68 265.32-25.93Q264.44-26.17 263.69-26.61Q262.93-27.05 262.34-27.73L262.34-27.73Q262.25-27.69 262.10-27.64Q261.95-27.59 261.81-27.59L261.81-27.59Q261.66-27.59 261.51-27.64Q261.37-27.69 261.27-27.73L261.27-27.73Q260.88-28.27 260.64-28.91L260.64-28.91L260.15-30.18Q259.90-30.81 259.61-31.40Q259.32-31.98 258.83-32.47L258.83-32.47Q258.68-33.35 258.68-34.18L258.68-34.18Q258.68-35.06 258.80-35.89Q258.93-36.72 259.17-37.55L259.17-37.55Q258.98-38.13 258.90-38.77Q258.83-39.40 258.83-40.04L258.83-40.04Q258.83-40.77 258.98-41.55Q259.12-42.33 259.46-42.99Q259.81-43.65 260.42-44.09Q261.03-44.53 261.90-44.53L261.90-44.53Q262.88-44.53 263.71-44.02Q264.54-43.51 265.32-42.97L265.32-42.97Q265.42-42.38 265.47-41.82Q265.52-41.26 265.52-40.63L265.52-40.63Q265.52-39.45 265.40-38.26Q265.27-37.06 265.27-35.84L265.27-35.84Q265.27-34.57 265.59-33.47Q265.91-32.37 266.74-31.40L266.74-31.40L266.93-31.40Q267.32-31.45 267.62-31.25Q267.91-31.05 268.30-31.05L268.30-31.05Q268.64-31.05 268.84-31.32Q269.03-31.59 269.33-31.59L269.33-31.59Q269.62-31.59 269.77-31.49Q269.91-31.40 270.01-31.40L270.01-31.40Q270.55-31.40 271.23-31.79Q271.91-32.18 272.11-32.67L272.11-32.67Q272.31-32.52 272.60-32.52L272.60-32.52Q272.99-32.52 273.33-32.76Q273.67-33.01 274.21-33.01L274.21-33.01Q274.50-33.01 274.43-33.37Q274.36-33.74 274.60-33.84L274.60-33.84Q275.19-34.08 275.89-34.55Q276.60-35.01 277.04-35.11L277.04-35.11Q277.29-35.74 277.65-36.30Q278.02-36.87 278.41-37.35L278.41-37.35Q278.56-38.48 278.99-39.50Q279.43-40.53 279.92-41.55Q280.41-42.58 280.85-43.60Q281.29-44.63 281.44-45.75L281.44-45.75Q281.97-46.29 282.29-46.92Q282.61-47.56 282.85-48.19L282.85-48.19Q283.34-48.34 284.07-48.36Q284.81-48.39 285.34-48.39L285.34-48.39L286.17-48.39Q286.32-48.10 286.56-47.85L286.56-47.85L287.05-47.36Q286.61-46.68 286.61-46.00L286.61-46.00Q286.61-45.46 286.86-44.95Q287.10-44.43 287.39-43.99ZM378.85-33.15L378.85-33.15Q378.75-32.57 378.53-31.84Q378.31-31.10 377.94-30.49Q377.58-29.88 377.04-29.47Q376.50-29.05 375.77-29.05L375.77-29.05Q375.23-29.05 374.70-29.17Q374.16-29.30 373.57-29.30L373.57-29.30Q373.33-29.30 373.06-29.13Q372.79-28.96 372.55-28.96L372.55-28.96Q372.31-28.96 372.13-29.03Q371.96-29.10 371.72-29.10L371.72-29.10Q371.57-29.10 371.18-29.00Q370.79-28.91 370.35-28.81Q369.91-28.71 369.52-28.59Q369.13-28.47 368.98-28.42L368.98-28.42Q367.67-27.98 366.35-27.64Q365.03-27.29 363.61-27.20L363.61-27.20Q363.32-27.29 362.73-27.42Q362.15-27.54 361.86-27.54L361.86-27.54Q361.27-27.54 361.10-27.05Q360.93-26.56 360.44-26.32L360.44-26.32Q359.85-25.98 358.98-25.93Q358.10-25.88 357.22-25.78Q356.34-25.68 355.58-25.42Q354.82-25.15 354.48-24.41L354.48-24.41Q354.24-24.46 353.97-24.49Q353.70-24.51 353.41-24.51L353.41-24.51Q351.85-24.51 350.48-23.90Q349.11-23.29 347.70-22.80L347.70-22.80Q347.94-22.36 348.04-21.73Q348.14-21.09 348.23-20.48Q348.33-19.87 348.50-19.31Q348.67-18.75 349.11-18.46L349.11-18.46Q349.11-18.16 348.99-17.97Q348.87-17.77 348.72-17.63L348.72-17.63L348.38-17.29Q348.23-17.14 348.18-16.85L348.18-16.85Q348.04-16.26 348.04-15.65Q348.04-15.04 347.35-14.75L347.35-14.75Q347.40-14.60 347.40-14.21L347.40-14.21Q347.40-13.72 347.26-13.28Q347.11-12.84 347.16-12.30L347.16-12.30Q346.33-11.38 345.77-10.40Q345.21-9.42 344.91-8.30L344.91-8.30Q343.11-6.49 341.23-4.66Q339.35-2.83 337.37-1.12Q335.39 0.59 333.29 2.12Q331.19 3.66 328.95 4.83L328.95 4.83L328.60 4.83Q327.48 4.83 326.85 5.22Q326.21 5.62 325.23 5.91L325.23 5.91Q324.50 5.71 323.48 5.71L323.48 5.71Q322.89 5.71 322.28 5.76Q321.67 5.81 321.04 5.81L321.04 5.81Q320.21 5.81 319.55 5.62Q318.89 5.42 318.28 5.18Q317.67 4.93 317.03 4.69Q316.40 4.44 315.66 4.35L315.66 4.35Q312.64 1.32 310.88-2.71Q309.12-6.74 309.12-10.99L309.12-10.99Q309.12-12.94 309.66-14.82Q310.20-16.70 310.20-18.60L310.20-18.60Q311.07-20.36 311.73-22.22Q312.39-24.07 313.08-25.93Q313.76-27.78 314.57-29.57Q315.37-31.35 316.49-32.96L316.49-32.96Q316.74-34.23 317.28-35.16Q317.81-36.08 318.45-37.21L318.45-37.21Q318.45-38.28 318.91-39.18Q319.38-40.09 319.47-41.21L319.47-41.21Q320.25-41.94 320.74-42.87Q321.23-43.80 321.67-44.78Q322.11-45.75 322.67-46.66Q323.23-47.56 324.21-48.19L324.21-48.19Q324.31-48.54 324.33-48.95Q324.36-49.37 324.55-49.61L324.55-49.61L325.58-50.73Q326.06-51.37 326.48-52.03Q326.89-52.69 327.38-53.22L327.38-53.22Q327.68-53.52 328.02-53.71Q328.36-53.91 328.60-54.15L328.60-54.15Q328.85-54.39 328.77-54.79Q328.70-55.18 328.95-55.42L328.95-55.42Q329.04-55.52 329.24-55.62Q329.43-55.71 329.58-55.81L329.58-55.81Q330.22-56.25 330.65-56.69Q331.09-57.13 331.88-57.32L331.88-57.32Q332.56-57.86 333.12-58.40Q333.68-58.94 334.27-59.38Q334.85-59.81 335.54-60.08Q336.22-60.35 337.25-60.35L337.25-60.35Q337.44-60.35 337.64-60.33Q337.83-60.30 338.03-60.30L338.03-60.30Q340.03-58.45 340.52-55.76L340.52-55.76Q339.98-55.08 339.66-54.30Q339.35-53.52 338.96-52.73L338.96-52.73Q338.13-52.44 337.39-51.88Q336.66-51.32 335.95-50.73Q335.24-50.15 334.49-49.71Q333.73-49.27 332.80-49.27L332.80-49.27Q332.41-48.93 331.56-48.17Q330.70-47.41 329.80-46.58Q328.90-45.75 328.14-45.02Q327.38-44.29 327.19-43.99L327.19-43.99Q327.04-43.75 326.94-43.55Q326.85-43.36 326.75-43.12L326.75-43.12L325.48-40.97Q324.40-39.11 323.28-37.33Q322.16-35.55 321.33-33.59L321.33-33.59Q320.94-32.71 320.69-31.84Q320.45-30.96 320.21-29.98L320.21-29.98Q320.11-29.69 319.96-29.39Q319.81-29.10 319.72-28.86L319.72-28.86Q319.18-27.83 318.84-26.95Q318.50-26.07 318.45-24.90L318.45-24.90Q317.23-22.17 316.18-19.41Q315.13-16.65 314.59-13.72L314.59-13.72Q314.88-12.74 314.86-11.74Q314.83-10.74 314.83-9.77L314.83-9.77Q314.83-8.54 315.01-7.74Q315.18-6.93 315.49-6.27Q315.81-5.62 316.20-4.91Q316.59-4.20 317.03-3.22L317.03-3.22Q317.76-2.64 318.35-1.98Q318.94-1.32 319.47-0.54L319.47-0.54Q321.33 0.39 323.23 0.39L323.23 0.39Q324.60 0.39 326.02-0.05Q327.43-0.49 328.77-1.15Q330.12-1.81 331.39-2.59Q332.66-3.37 333.83-4.10L333.83-4.10Q335.88-5.32 337.39-6.74Q338.91-8.15 340.15-9.72Q341.40-11.28 342.47-13.06Q343.55-14.84 344.72-16.85L344.72-16.85Q344.77-17.09 344.91-17.43L344.91-17.43L345.21-18.16Q345.35-18.55 345.47-18.87Q345.60-19.19 345.60-19.29L345.60-19.29Q345.60-19.68 345.43-19.85Q345.25-20.02 345.25-20.21L345.25-20.21Q345.25-20.61 345.45-20.75Q345.64-20.90 345.91-21.04Q346.18-21.19 346.40-21.39Q346.62-21.58 346.62-22.12L346.62-22.12Q346.52-22.17 346.28-22.17L346.28-22.17Q346.04-22.17 345.79-22.12Q345.55-22.07 345.30-22.07L345.30-22.07Q344.72-22.07 344.33-22.46L344.33-22.46Q344.08-22.36 343.84-22.14Q343.59-21.92 343.37-21.68Q343.15-21.44 342.96-21.24Q342.76-21.04 342.62-21.04L342.62-21.04Q342.37-21.04 342.25-21.14Q342.13-21.24 341.93-21.24L341.93-21.24Q341.10-21.24 340.47-20.85Q339.83-20.46 339.10-20.21L339.10-20.21Q338.96-20.21 338.81-20.24Q338.66-20.26 338.52-20.26L338.52-20.26Q337.98-20.26 337.47-20.09Q336.95-19.92 336.49-19.73Q336.03-19.53 335.54-19.38Q335.05-19.24 334.56-19.29L334.56-19.29Q333.49-18.90 332.58-18.46Q331.68-18.02 330.51-18.12L330.51-18.12Q330.17-17.97 329.80-17.80Q329.43-17.63 329.09-17.38L329.09-17.38Q328.80-17.29 328.65-17.29L328.65-17.29Q328.41-17.29 328.26-17.53L328.26-17.53Q327.87-17.09 327.24-16.92Q326.60-16.75 325.92-16.63Q325.23-16.50 324.62-16.33Q324.01-16.16 323.67-15.67L323.67-15.67Q323.14-16.11 322.40-16.11L322.40-16.11Q321.67-16.11 320.99-15.84Q320.30-15.58 319.52-15.58L319.52-15.58Q319.23-15.58 319.13-15.67L319.13-15.67Q318.94-16.21 318.69-16.75Q318.45-17.29 317.91-17.53L317.91-17.53Q317.81-18.07 317.74-18.58Q317.67-19.09 317.67-19.58L317.67-19.58Q317.67-20.90 318.45-21.97L318.45-21.97Q319.13-22.22 319.84-22.39Q320.55-22.56 321.23-22.80L321.23-22.80Q321.77-22.71 322.31-22.66Q322.84-22.61 323.38-22.61L323.38-22.61Q325.38-22.61 327.29-23.12Q329.19-23.63 331.05-24.22L331.05-24.22Q332.80-24.76 334.61-25.20Q336.42-25.63 338.22-26.17L338.22-26.17Q339.93-26.61 341.59-27.17Q343.25-27.73 345.06-27.88L345.06-27.88Q346.23-28.71 347.92-29.00Q349.60-29.30 351.02-29.64L351.02-29.64Q353.26-30.18 355.46-30.74Q357.66-31.30 359.95-31.74L359.95-31.74Q362.49-32.28 364.91-33.06Q367.32-33.84 369.77-34.72L369.77-34.72L370.25-34.72Q371.08-34.72 371.96-34.91Q372.84-35.11 373.72-35.11L373.72-35.11Q373.97-35.11 374.14-35.08Q374.31-35.06 374.50-35.06L374.50-35.06Q374.65-35.06 375.23-35.28Q375.82-35.50 376.06-35.60L376.06-35.60Q376.70-34.91 377.48-34.38Q378.26-33.84 378.85-33.15ZM368.55-17.09L368.55-17.09Q368.30-16.70 367.96-16.38Q367.62-16.06 367.32-15.72L367.32-15.72Q366.98-15.58 366.57-15.58Q366.15-15.58 365.79-15.60Q365.42-15.63 365.10-15.60Q364.79-15.58 364.59-15.38L364.59-15.38Q364.20-15.48 364.00-15.75Q363.81-16.02 363.32-16.06L363.32-16.06Q363.13-16.11 362.93-16.06L362.93-16.06Q362.20-16.89 361.59-17.82Q360.98-18.75 360.44-19.58L360.44-19.58Q360.39-21.39 360.15-23.24L360.15-23.24Q360.10-23.68 360.00-24.12Q359.90-24.56 359.85-24.95L359.85-24.95Q359.85-25.44 359.93-25.90Q360.00-26.37 360.05-26.76L360.05-26.76Q360.24-28.17 360.49-29.54Q360.73-30.91 360.93-32.32L360.93-32.32Q361.12-33.59 361.12-34.99Q361.12-36.38 360.68-37.60L360.68-37.60L360.64-37.84Q360.73-38.23 360.85-38.50Q360.98-38.77 361.03-39.11L361.03-39.11Q361.12-39.65 360.78-39.89L360.78-39.89Q360.93-40.28 361.27-40.41Q361.61-40.53 361.66-40.97L361.66-40.97Q361.71-41.16 361.66-41.36L361.66-41.36Q362.05-41.50 362.47-41.63Q362.88-41.75 363.27-41.65L363.27-41.65Q363.91-41.55 364.39-41.24Q364.88-40.92 365.32-40.53L365.32-40.53Q366.10-38.18 365.96-35.57Q365.81-32.96 365.47-30.32Q365.13-27.69 365.03-25.17Q364.93-22.66 365.81-20.51L365.81-20.51L365.91-20.46Q366.15-20.41 366.30-20.63Q366.45-20.85 366.69-20.80L366.69-20.80Q366.89-20.70 366.93-20.70L366.93-20.70Q367.13-19.73 367.57-18.85Q368.01-17.97 368.55-17.09ZM409.81-44.82L409.81-44.82Q409.81-44.38 409.61-43.99L409.61-43.99L409.27-43.26Q409.12-42.92 408.98-42.53Q408.83-42.14 408.88-41.60L408.88-41.60Q408.19-40.82 407.51-40.09Q406.83-39.36 406.29-38.43L406.29-38.43Q405.75-38.48 405.48-38.18Q405.22-37.89 405.07-37.40L405.07-37.40Q404.04-37.06 403.26-36.35Q402.48-35.64 401.89-34.81L401.89-34.81Q399.31-33.74 397.06-32.18Q394.81-30.62 392.96-28.52L392.96-28.52Q393.84-28.52 394.69-28.32Q395.55-28.13 396.40-27.91Q397.26-27.69 398.09-27.51Q398.92-27.34 399.80-27.44L399.80-27.44Q400.43-26.86 401.24-26.46Q402.04-26.07 402.85-25.73Q403.65-25.39 404.41-24.95Q405.17-24.51 405.75-23.88L405.75-23.88Q405.75-23.78 405.73-23.71Q405.70-23.63 405.70-23.54L405.70-23.54Q405.70-23.14 405.90-22.78Q406.09-22.41 406.09-22.02L406.09-22.02Q405.85-21.63 405.65-21.19Q405.46-20.75 405.19-20.41Q404.92-20.07 404.58-19.82Q404.24-19.58 403.65-19.53L403.65-19.53Q403.41-18.70 402.87-18.24Q402.33-17.77 401.68-17.41Q401.02-17.04 400.38-16.67Q399.75-16.31 399.31-15.72L399.31-15.72Q397.84-15.38 396.45-14.77Q395.06-14.16 393.98-13.04L393.98-13.04Q393.25-12.94 392.50-12.82Q391.74-12.70 391.01-12.70L391.01-12.70Q389.98-12.70 389.35-13.11Q388.71-13.53 388.61-14.65L388.61-14.65Q388.76-14.99 389.05-15.23L389.05-15.23L389.69-15.72Q390.03-15.97 390.30-16.24Q390.57-16.50 390.71-16.89L390.71-16.89Q390.81-16.89 390.96-16.87Q391.10-16.85 391.25-16.85L391.25-16.85Q391.84-16.85 392.18-17.09Q392.52-17.33 392.84-17.58Q393.15-17.82 393.55-18.02Q393.94-18.21 394.57-18.16L394.57-18.16Q394.91-18.80 395.60-19.12Q396.28-19.43 397.01-19.70Q397.74-19.97 398.40-20.34Q399.06-20.70 399.31-21.44L399.31-21.44Q399.06-21.83 398.67-22.05Q398.28-22.27 397.79-22.41L397.79-22.41L396.87-22.71Q396.43-22.85 396.08-23.05L396.08-23.05Q395.55-22.90 395.06-22.90L395.06-22.90Q394.03-22.90 393.06-23.10Q392.08-23.29 391.06-23.29L391.06-23.29Q390.13-23.29 389.44-23.05L389.44-23.05Q389.20-23.10 388.93-23.19Q388.66-23.29 388.42-23.39L388.42-23.39Q387.30-22.95 386.07-22.95L386.07-22.95L382.90-22.95Q382.51-22.95 382.12-22.85L382.12-22.85Q381.58-21.88 381.58-20.75L381.58-20.75Q381.58-19.92 381.83-19.17Q382.07-18.41 382.31-17.58L382.31-17.58Q383.29-16.70 384.12-15.50Q384.95-14.31 384.95-12.89L384.95-12.89Q384.95-12.55 384.90-12.35L384.90-12.35Q384.41-12.70 383.63-12.70L383.63-12.70Q382.95-12.70 382.34-12.50Q381.73-12.30 381.05-12.21L381.05-12.21Q380.51-12.45 379.92-12.72Q379.34-12.99 378.80-13.38L378.80-13.38Q378.41-14.21 378.02-14.97Q377.63-15.72 377.04-16.41L377.04-16.41L377.04-16.60Q377.04-18.31 376.77-19.97Q376.50-21.63 376.50-23.34L376.50-23.34Q376.50-24.12 376.58-24.93Q376.65-25.73 377.04-26.42L377.04-26.42Q376.89-27.59 376.89-28.86L376.89-28.86Q376.89-31.40 377.19-33.94Q377.48-36.47 377.48-39.11L377.48-39.11Q377.48-39.65 377.46-40.19Q377.43-40.72 377.38-41.26L377.38-41.26L377.19-41.26Q376.55-41.26 375.97-41.09Q375.38-40.92 374.80-40.72Q374.21-40.53 373.57-40.36Q372.94-40.19 372.31-40.19L372.31-40.19Q371.91-39.99 371.67-39.79Q371.43-39.60 371.18-39.45Q370.94-39.31 370.62-39.21Q370.30-39.11 369.86-39.16L369.86-39.16Q369.33-38.82 369.01-38.65Q368.69-38.48 368.11-38.28L368.11-38.28Q367.81-38.18 367.62-37.99L367.62-37.99L367.23-37.65Q367.03-37.50 366.79-37.35Q366.54-37.21 366.15-37.21L366.15-37.21Q365.81-37.21 365.66-37.26L365.66-37.26Q365.37-37.50 365.15-37.84Q364.93-38.18 364.71-38.50Q364.49-38.82 364.22-39.09Q363.96-39.36 363.56-39.50L363.56-39.50Q363.76-39.75 363.74-39.92Q363.71-40.09 363.71-40.33L363.71-40.33Q363.71-40.48 363.76-40.53L363.76-40.53Q364.00-41.41 364.64-41.92Q365.27-42.43 366.06-42.75Q366.84-43.07 367.64-43.31Q368.45-43.55 369.13-43.90L369.13-43.90Q371.04-43.85 372.60-44.26Q374.16-44.68 375.82-45.46L375.82-45.46Q376.11-45.31 376.41-45.31L376.41-45.31Q376.65-45.31 376.89-45.36L376.89-45.36L377.38-45.46Q377.97-45.95 378.65-46.09Q379.34-46.24 380.02-46.34Q380.70-46.44 381.34-46.56Q381.97-46.68 382.46-47.07L382.46-47.07L382.66-47.07Q383.83-47.07 385.02-47.46Q386.22-47.85 387.34-47.75L387.34-47.75Q388.32-48.29 389.15-48.44Q389.98-48.58 391.06-48.58L391.06-48.58Q391.30-48.58 391.64-48.80Q391.98-49.02 392.47-49.02L392.47-49.02Q392.57-49.02 392.64-49.00Q392.72-48.97 392.81-48.97L392.81-48.97Q393.25-48.97 393.42-49.27Q393.59-49.56 394.33-49.56L394.33-49.56Q394.67-49.56 394.96-49.54Q395.25-49.51 395.55-49.51L395.55-49.51Q395.89-49.51 395.99-49.78Q396.08-50.05 396.43-50L396.43-50Q396.57-49.80 396.91-49.83Q397.26-49.85 397.45-49.85L397.45-49.85Q397.79-49.85 397.84-49.66L397.84-49.66Q398.62-50.15 399.58-50.29Q400.53-50.44 401.41-50.44L401.41-50.44Q401.75-50.44 402.09-50.42Q402.43-50.39 402.82-50.34L402.82-50.34Q403.26-50.63 403.85-50.63L403.85-50.63Q404.19-50.63 404.95-50.34Q405.70-50.05 406.53-49.66Q407.36-49.27 408.05-48.83Q408.73-48.39 408.88-48.10L408.88-48.10Q408.98-48.00 409.00-47.66Q409.02-47.31 409.12-47.07L409.12-47.07Q409.37-46.48 409.59-45.97Q409.81-45.46 409.81-44.82ZM404.39-44.29L404.39-44.29Q404.39-44.38 404.36-44.51Q404.34-44.63 404.34-44.73L404.34-44.73Q404.09-45.02 403.68-45.17Q403.26-45.31 402.80-45.41Q402.33-45.51 401.87-45.58Q401.41-45.65 401.06-45.80L401.06-45.80Q400.04-45.46 398.82-45.46L398.82-45.46Q397.70-45.46 396.82-45.80L396.82-45.80Q396.38-45.36 395.69-45.12Q395.01-44.87 394.25-44.75Q393.50-44.63 392.74-44.60Q391.98-44.58 391.40-44.58L391.40-44.58Q391.20-44.58 390.71-44.29Q390.23-43.99 389.83-43.99L389.83-43.99Q389.54-43.99 389.30-44.24L389.30-44.24Q388.86-43.90 388.08-43.65Q387.30-43.41 386.47-43.24Q385.64-43.07 384.78-42.87Q383.93-42.68 383.34-42.48L383.34-42.48Q382.75-41.21 382.71-39.72Q382.66-38.23 382.66-36.82L382.66-36.82Q382.66-35.99 382.56-35.21Q382.46-34.42 382.46-33.59L382.46-33.59Q382.46-33.20 382.51-32.79Q382.56-32.37 382.80-31.98L382.80-31.98Q382.41-31.69 382.29-31.23Q382.17-30.76 382.17-30.32L382.17-30.32Q382.17-29.79 382.27-29.35Q382.36-28.91 382.46-28.52L382.46-28.52Q384.02-28.66 385.32-29.10Q386.61-29.54 387.76-30.18Q388.91-30.81 389.98-31.64Q391.06-32.47 392.23-33.40L392.23-33.40Q392.72-33.50 393.03-33.69Q393.35-33.89 393.84-33.89L393.84-33.89Q394.03-34.57 394.57-34.84Q395.11-35.11 395.40-35.64L395.40-35.64Q395.99-35.79 396.40-36.06Q396.82-36.33 397.21-36.60Q397.60-36.87 398.06-37.11Q398.53-37.35 399.11-37.40L399.11-37.40Q399.94-38.38 400.85-39.36Q401.75-40.33 402.97-40.92L402.97-40.92Q403.16-41.41 403.41-41.77Q403.65-42.14 403.87-42.50Q404.09-42.87 404.24-43.29Q404.39-43.70 404.39-44.29ZM436.27-16.55L436.27-16.55Q436.27-15.72 435.85-15.11Q435.44-14.50 435.54-13.62L435.54-13.62Q434.85-13.23 434.41-12.60Q433.98-11.96 433.58-11.28L433.58-11.28Q430.36-9.18 426.68-7.89Q422.99-6.59 419.08-6.59L419.08-6.59Q418.84-6.59 418.64-6.81Q418.45-7.03 418.25-7.28Q418.06-7.52 417.84-7.74Q417.62-7.96 417.32-7.96L417.32-7.96Q416.98-7.96 416.79-7.81L416.79-7.81Q416.79-7.91 416.81-7.98Q416.84-8.06 416.84-8.15L416.84-8.15Q416.84-8.74 416.69-9.35Q416.54-9.96 416.54-10.55L416.54-10.55Q416.54-11.23 416.79-11.67L416.79-11.67L417.37-11.67Q417.86-11.67 418.33-11.74Q418.79-11.82 419.33-11.82L419.33-11.82Q419.86-11.82 420.30-11.52L420.30-11.52Q422.99-11.62 425.41-12.52Q427.82-13.43 430.31-14.31L430.31-14.31Q430.70-14.84 430.78-15.50Q430.85-16.16 431.14-16.75L431.14-16.75Q429.87-17.82 428.58-18.43Q427.29-19.04 425.58-18.85L425.58-18.85Q424.55-19.48 423.40-19.58Q422.26-19.68 421.08-19.87L421.08-19.87Q420.79-19.92 420.47-20.00Q420.16-20.07 419.81-20.07L419.81-20.07Q419.57-20.07 419.35-19.95Q419.13-19.82 419.23-19.58L419.23-19.58Q418.98-19.97 418.57-20.04Q418.15-20.12 417.86-20.41L417.86-20.41Q416.30-20.51 415.13-20.97Q413.96-21.44 412.54-22.02L412.54-22.02Q412.15-22.17 411.78-22.24Q411.42-22.31 411.07-22.51L411.07-22.51Q410.20-22.95 409.66-23.68Q409.12-24.41 408.80-25.32Q408.49-26.22 408.34-27.20Q408.19-28.17 408.05-29.00L408.05-29.00Q408.49-29.79 408.85-30.62Q409.22-31.45 409.46-32.37L409.46-32.37Q409.76-32.52 410.05-32.62Q410.34-32.71 410.68-32.86L410.68-32.86Q410.64-32.96 410.64-33.11L410.64-33.11Q410.64-33.35 410.81-33.59Q410.98-33.84 410.88-34.08L410.88-34.08Q411.95-35.06 412.95-36.11Q413.96-37.16 414.69-38.43L414.69-38.43Q415.42-38.67 415.86-39.16Q416.30-39.65 416.74-40.16Q417.18-40.67 417.72-41.09Q418.25-41.50 419.08-41.60L419.08-41.60Q419.28-41.94 419.62-42.16Q419.96-42.38 420.30-42.58Q420.64-42.77 420.94-43.02Q421.23-43.26 421.38-43.70L421.38-43.70Q422.16-43.70 422.82-43.99Q423.48-44.29 424.11-44.63Q424.75-44.97 425.41-45.26Q426.06-45.56 426.85-45.56L426.85-45.56Q427.04-45.56 427.24-45.53Q427.43-45.51 427.68-45.46L427.68-45.46Q428.02-45.12 428.14-44.65Q428.26-44.19 428.31-43.65Q428.36-43.12 428.38-42.58Q428.41-42.04 428.56-41.60L428.56-41.60Q428.12-40.77 427.60-39.94Q427.09-39.11 426.26-38.67L426.26-38.67L426.16-38.67Q425.82-38.62 425.53-38.82Q425.23-39.01 424.84-39.01L424.84-39.01Q424.60-39.01 424.45-38.87L424.45-38.87L424.21-38.62Q424.11-38.53 423.94-38.43Q423.77-38.33 423.48-38.43L423.48-38.43Q422.79-38.18 422.94-37.60L422.94-37.60Q422.01-37.50 421.38-37.04Q420.74-36.57 420.21-36.01Q419.67-35.45 419.13-34.99Q418.59-34.52 417.86-34.47L417.86-34.47Q417.03-33.01 415.84-31.88Q414.64-30.76 413.86-29.35L413.86-29.35Q414.00-28.96 414.05-28.52Q414.10-28.08 414.20-27.59L414.20-27.59Q414.64-27.00 415.25-26.56Q415.86-26.12 416.45-25.68L416.45-25.68L416.59-25.68Q417.57-25.68 418.40-25.32Q419.23-24.95 420.16-24.95L420.16-24.95Q420.64-24.95 420.99-25.15L420.99-25.15Q422.26-24.85 423.50-24.66Q424.75-24.46 426.02-24.37L426.02-24.37Q426.65-24.27 427.31-24.27Q427.97-24.27 428.56-24.12L428.56-24.12Q429.09-23.97 429.63-23.75Q430.17-23.54 430.70-23.29L430.70-23.29Q431.83-22.80 432.83-22.22Q433.83-21.63 434.61-20.83Q435.39-20.02 435.83-18.97Q436.27-17.92 436.27-16.55ZM470.06-38.67L470.06-38.67Q469.77-38.23 469.72-37.70Q469.67-37.16 469.67-36.72L469.67-36.72Q469.67-36.13 469.69-35.57Q469.72-35.01 469.72-34.47L469.72-34.47L469.72-33.74Q469.62-33.40 469.42-33.06Q469.23-32.71 469.13-32.37L469.13-32.37Q468.45-30.57 468.45-28.76L468.45-28.76L468.45-28.66Q468.20-28.08 467.98-27.59Q467.76-27.10 467.57-26.64Q467.37-26.17 467.28-25.66Q467.18-25.15 467.23-24.46L467.23-24.46Q466.54-22.75 465.42-21.36Q464.30-19.97 463.22-18.51L463.22-18.51Q462.20-18.12 461.34-17.48Q460.49-16.85 459.71-16.06L459.71-16.06Q458.19-15.58 456.73-14.94Q455.26-14.31 454.09-13.23L454.09-13.23Q453.16-13.13 452.24-12.94Q451.31-12.74 450.43-12.35L450.43-12.35L449.84-12.35Q449.40-12.35 449.21-12.55L449.21-12.55Q448.57-12.21 447.89-12.08Q447.21-11.96 446.52-11.96L446.52-11.96Q445.64-11.96 444.79-12.08Q443.94-12.21 443.06-12.35L443.06-12.35Q442.57-13.04 441.69-13.40Q440.81-13.77 440.13-14.11L440.13-14.11Q438.71-16.06 438.08-17.90Q437.44-19.73 436.76-22.02L436.76-22.02Q436.86-22.71 437.10-23.36Q437.34-24.02 437.30-24.80L437.30-24.80Q438.17-27.34 439.61-29.42Q441.06-31.49 442.91-33.40L442.91-33.40Q442.91-33.69 443.03-33.89Q443.15-34.08 443.06-34.47L443.06-34.47Q443.11-34.42 443.25-34.42L443.25-34.42Q443.64-34.42 443.74-34.64Q443.84-34.86 443.79-35.16L443.79-35.16Q445.55-36.28 446.99-37.74Q448.43-39.21 450.28-40.19L450.28-40.19Q450.43-40.63 450.77-40.92Q451.11-41.21 451.31-41.60L451.31-41.60Q452.87-42.04 454.14-42.92Q455.41-43.80 456.83-44.48L456.83-44.48Q457.61-44.92 458.32-45.09Q459.02-45.26 459.85-45.46L459.85-45.46Q460.15-45.56 460.39-45.61Q460.64-45.65 460.93-45.65L460.93-45.65Q461.81-45.65 462.64-45.34Q463.47-45.02 464.35-45.02L464.35-45.02Q464.59-45.02 464.76-45.04Q464.93-45.07 465.13-45.12L465.13-45.12Q465.96-44.09 467.23-43.55L467.23-43.55Q467.52-42.82 467.94-42.29Q468.35-41.75 468.79-41.24Q469.23-40.72 469.60-40.11Q469.96-39.50 470.06-38.67ZM465.18-36.13L465.18-36.13Q465.18-36.38 465.13-36.57L465.13-36.57Q464.64-36.72 464.20-36.96Q463.76-37.21 463.22-37.21L463.22-37.21Q462.88-37.21 462.54-37.06L462.54-37.06Q462.49-37.40 462.27-37.55Q462.05-37.70 461.78-37.82Q461.51-37.94 461.25-38.01Q460.98-38.09 460.78-38.28L460.78-38.28Q460.64-38.67 460.46-39.09Q460.29-39.50 459.85-39.70L459.85-39.70Q459.41-39.26 458.83-38.99Q458.24-38.72 457.63-38.48Q457.02-38.23 456.46-37.89Q455.90-37.55 455.51-37.06L455.51-37.06L454.63-37.06Q454.34-36.52 453.80-36.25Q453.26-35.99 452.87-35.50L452.87-35.50Q452.09-35.11 451.43-34.55Q450.77-33.98 450.14-33.37Q449.50-32.76 448.89-32.13Q448.28-31.49 447.60-30.96L447.60-30.96Q446.96-29.59 446.21-28.59Q445.45-27.59 444.79-26.56Q444.13-25.54 443.67-24.34Q443.20-23.14 443.20-21.39L443.20-21.39L443.20-20.90Q443.20-20.65 443.25-20.41L443.25-20.41Q443.89-19.73 444.30-18.95Q444.72-18.16 445.69-17.82L445.69-17.82Q446.67-17.43 447.77-17.48Q448.87-17.53 449.89-17.24L449.89-17.24Q452.24-17.68 454.41-18.68Q456.58-19.68 458.54-21.09L458.54-21.09Q458.83-21.34 459.22-21.61Q459.61-21.88 459.85-22.17L459.85-22.17Q460.10-22.41 460.27-22.71Q460.44-23.00 460.64-23.24L460.64-23.24Q461.03-23.88 461.51-24.51Q462.00-25.15 462.54-25.68L462.54-25.68Q462.78-26.76 463.17-27.76Q463.56-28.76 463.96-29.74Q464.35-30.71 464.61-31.74Q464.88-32.76 464.88-33.89L464.88-33.89Q464.88-34.13 464.86-34.42Q464.83-34.72 464.79-34.96L464.79-34.96Q465.18-35.50 465.18-36.13ZM505.56-42.48L505.56-42.48Q505.46-41.89 505.29-41.48Q505.12-41.06 505.22-40.38L505.22-40.38Q504.73-40.33 504.46-40.06Q504.19-39.79 504.02-39.45Q503.85-39.11 503.68-38.75Q503.51-38.38 503.26-38.09L503.26-38.09Q503.65-36.33 503.70-34.52Q503.75-32.71 503.95-30.96L503.95-30.96Q504.19-28.71 504.70-26.54Q505.22-24.37 505.22-22.12L505.22-22.12Q505.22-21.44 505.19-20.85Q505.17-20.26 505.17-19.63L505.17-19.63Q505.17-19.24 505.19-18.82Q505.22-18.41 505.22-18.02L505.22-18.02Q505.22-16.60 504.85-15.19Q504.48-13.77 504.29-12.35L504.29-12.35Q503.70-11.82 503.29-11.18Q502.87-10.55 502.43-10.01Q501.99-9.47 501.41-9.06Q500.82-8.64 499.94-8.50L499.94-8.50Q499.80-8.01 499.38-7.76Q498.97-7.52 498.67-7.08L498.67-7.08L498.57-7.08Q497.35-7.08 496.48-7.42Q495.60-7.76 494.84-8.20Q494.08-8.64 493.30-9.13Q492.52-9.62 491.49-9.91L491.49-9.91Q490.13-11.04 489.00-12.38Q487.88-13.72 486.47-14.79L486.47-14.79Q486.12-15.77 485.56-16.41Q485.00-17.04 484.46-17.87L484.46-17.87Q484.22-18.21 484.10-18.51Q483.98-18.80 483.78-19.19L483.78-19.19Q483.63-19.58 483.32-19.73Q483.00-19.87 482.75-20.07L482.75-20.07Q482.36-21.58 481.63-22.85Q480.90-24.12 479.92-25.29L479.92-25.29Q479.63-24.76 479.46-24.15Q479.29-23.54 479.14-22.92Q478.99-22.31 478.77-21.70Q478.56-21.09 478.21-20.61L478.21-20.61L478.21-20.46Q478.21-20.21 478.41-20.17Q478.60-20.12 478.60-19.87L478.60-19.87Q478.60-19.82 478.58-19.78Q478.56-19.73 478.56-19.68L478.56-19.68Q478.31-19.48 478.19-19.19Q478.07-18.90 477.68-18.85L477.68-18.85Q477.73-18.60 477.73-18.36L477.73-18.36L477.73-17.92Q477.73-16.50 477.41-15.09Q477.09-13.67 477.09-12.21L477.09-12.21L477.09-11.57Q477.09-11.23 477.14-10.94L477.14-10.94Q477.24-10.64 477.43-10.35Q477.63-10.06 477.63-9.81L477.63-9.81Q477.63-9.47 477.33-9.18L477.33-9.18Q477.68-8.94 478.12-8.64Q478.56-8.35 478.92-7.98Q479.29-7.62 479.53-7.20Q479.78-6.79 479.78-6.30L479.78-6.30Q479.78-5.47 479.24-5.13Q478.70-4.79 477.94-4.59Q477.19-4.39 476.38-4.22Q475.58-4.05 475.04-3.61L475.04-3.61L474.89-3.61Q474.31-3.61 474.01-3.96Q473.72-4.30 473.14-4.30L473.14-4.30Q472.21-5.81 471.87-7.69Q471.52-9.57 471.52-11.28L471.52-11.28Q471.52-13.38 471.89-15.48Q472.26-17.58 472.77-19.63Q473.28-21.68 473.89-23.71Q474.50-25.73 475.04-27.78L475.04-27.78L475.09-27.93Q475.09-28.17 474.97-28.27Q474.84-28.37 474.84-28.56L474.84-28.56Q474.84-28.66 474.89-28.66L474.89-28.66Q475.04-29.15 475.21-29.59Q475.38-30.03 475.48-30.57L475.48-30.57Q475.77-31.93 475.89-33.37Q476.02-34.81 476.04-36.23Q476.06-37.65 476.14-39.09Q476.21-40.53 476.46-41.94L476.46-41.94Q476.85-42.33 477.19-42.77Q477.53-43.21 478.07-43.55L478.07-43.55Q479.04-43.51 480.02-43.26Q481.00-43.02 481.88-42.48L481.88-42.48Q482.46-40.38 482.68-38.28Q482.90-36.18 483.44-34.08L483.44-34.08L483.44-33.94Q483.44-33.69 483.71-33.72Q483.98-33.74 484.12-33.54L484.12-33.54Q484.02-33.40 484.00-33.20Q483.98-33.01 483.98-32.81L483.98-32.81L483.98-31.98Q484.07-31.59 484.22-31.15Q484.37-30.71 484.85-30.62L484.85-30.62Q485.10-29.05 485.59-27.73Q486.07-26.42 486.71-25.20Q487.34-23.97 488.08-22.78Q488.81-21.58 489.59-20.26L489.59-20.26Q490.81-19.34 491.69-18.14Q492.57-16.94 493.47-15.84Q494.38-14.75 495.52-13.92Q496.67-13.09 498.53-12.89L498.53-12.89Q498.77-13.09 498.87-13.43L498.87-13.43L499.11-14.11Q499.26-14.45 499.43-14.72Q499.60-14.99 499.94-15.14L499.94-15.14Q500.04-16.50 500.16-17.92Q500.28-19.34 500.77-20.61L500.77-20.61Q500.53-21.04 500.53-21.68L500.53-21.68Q500.53-22.17 500.60-22.61Q500.67-23.05 500.67-23.49L500.67-23.49Q500.67-24.41 500.28-25L500.28-25Q500.28-25.34 500.33-25.71Q500.38-26.07 500.63-26.42L500.63-26.42Q500.23-27.39 500.02-28.47Q499.80-29.54 499.80-30.66L499.80-30.66Q499.80-31.30 499.94-31.98L499.94-31.98Q499.65-32.71 499.55-33.69L499.55-33.69L499.36-35.69Q499.26-36.72 499.06-37.60Q498.87-38.48 498.33-39.01L498.33-39.01Q498.62-39.45 498.62-40.04L498.62-40.04Q498.62-41.02 498.33-41.89Q498.04-42.77 498.04-43.75L498.04-43.75Q498.04-44.43 498.33-45.12L498.33-45.12Q499.40-45.07 500.45-44.90Q501.50-44.73 502.53-44.73L502.53-44.73Q502.82-44.34 503.21-44.09Q503.60-43.85 504.04-43.63Q504.48-43.41 504.90-43.16Q505.31-42.92 505.56-42.48Z"></path></g></g></svg>